<svg xmlns="http://www.w3.org/2000/svg" enable-background="new 0 0 24 24" viewBox="0 0 24 24" id="vim">
  <path fill="#20913D" d="M23.972,11.987l-4.317-4.319l4.303-4.414V1.461l-0.649-0.648h-8.197l-0.661,0.605v1.045l-2.436-2.436V0L12,0.014L11.986,0v0.027l-1.29,1.291L10.158,0.78H2.035L1.397,1.471v1.884l0.616,0.616h0.72v5.311l-2.705,2.705H0L0.014,12L0,12.014h0.027l2.705,2.706v6.468L3.64,21.71h2.322l1.858-1.904l4.166,4.166V24L12,23.986L12.013,24v-0.029l2.51-2.509h0.485c0.112,0,0.211-0.07,0.25-0.178l0.146-0.427l-0.037-0.238l1.462-1.462l-0.612,1.962c-0.043,0.141,0.036,0.289,0.177,0.332l0.078,0.011h1.824c0.106,0,0.201-0.064,0.243-0.163l0.165-0.394l-0.004-0.203l-0.146-0.143l-0.097-0.019h-0.075l0.84-2.645h1.232l-1.015,3.222c-0.043,0.141,0.035,0.289,0.176,0.332l0.079,0.012h2.002c0.109,0,0.207-0.066,0.248-0.17l0.163-0.428c0.052-0.138-0.02-0.29-0.157-0.341l-0.091-0.017h-0.145l1.131-3.673l-0.039-0.24l-0.375-0.504l-0.003-0.005l-0.209-0.102h-1.436l-0.191,0.08l-0.399,0.439h-0.624l-0.042-0.046l4.444-4.445H24L23.986,12L24,11.987H23.972L23.972,11.987z"></path>
  <polygon fill="#FFF" points="11.309 20.881 11.932 20.881 11.854 21.138 9.838 21.138 11.417 16.63 10.916 16.63 11.213 16.326 12.872 16.326 11.309 20.881"></polygon>
  <polygon fill="#FFF" points="12.22 14.922 12.039 14.741 12.35 13.87 12.638 13.623 13.533 13.623 13.683 13.773 13.414 14.696 13.189 14.922"></polygon>
  <polygon fill="#FFF" points="20.358 16.877 20.832 16.357 22.166 16.357 22.475 16.773 21.21 20.88 21.703 20.88 21.623 21.089 19.84 21.089 20.964 17.525 18.949 17.525 17.872 20.916 18.296 20.916 18.223 21.09 16.618 21.09 17.725 17.542 15.629 17.542 14.567 20.881 15.003 20.881 14.931 21.09 13.27 21.09 14.784 16.63 14.198 16.63 14.289 16.359 15.939 16.359 16.458 16.896 17.364 16.896 17.855 16.342 18.916 16.342 19.405 16.877"></polygon>
  <polygon fill="#FFF" points="12.979 13.25 12.606 13.25 12.564 13.251 12.544 13.254 12.425 13.314 12.082 13.609 12.078 13.612 12.005 13.723 11.709 14.552 5.59 20.829 3.877 20.829 3.615 20.679 3.615 3.091 2.379 3.091 2.279 2.991 2.279 1.814 2.422 1.661 9.793 1.661 10.006 1.875 10.006 2.982 9.864 3.156 8.785 3.156 8.785 11.844 17.592 3.156 15.506 3.156 15.331 2.968 15.331 1.804 15.452 1.694 22.942 1.694 23.074 1.827 23.074 2.896 12.979 13.25"></polygon>
  <polygon fill="#1C7E35" points="11.986 0 11.986 .027 10.696 1.318 10.158 .78 2.035 .78 1.397 1.471 1.397 3.355 2.013 3.972 2.733 3.972 2.733 9.282 .027 11.987 0 11.987 .014 12 0 12.014 .027 12.014 2.733 14.72 2.733 21.187 3.64 21.71 5.962 21.71 7.82 19.806 11.986 23.972 11.986 24 12 23.986 12 18.867 11.309 20.881 11.932 20.881 11.854 21.138 9.838 21.138 11.417 16.63 10.916 16.63 11.213 16.326 12 16.326 12 13.736 11.709 14.552 5.59 20.829 3.877 20.829 3.615 20.679 3.615 3.091 2.379 3.091 2.279 2.991 2.279 1.814 2.422 1.661 9.793 1.661 10.006 1.875 10.006 2.982 9.864 3.156 8.785 3.156 8.785 11.844 12 8.672 12 .014 11.986 0"></polygon>
  <polygon fill="#DEDEDE" points="12 16.326 11.213 16.326 10.916 16.63 11.417 16.63 9.838 21.138 11.854 21.138 11.932 20.881 11.309 20.881 12 18.867 12 16.326"></polygon>
  <polygon fill="#DEDEDE" points="9.793 1.661 2.422 1.661 2.279 1.814 2.279 2.991 2.379 3.091 3.615 3.091 3.615 20.679 3.877 20.829 5.59 20.829 11.709 14.552 12 13.736 12 8.672 8.785 11.844 8.785 3.156 9.864 3.156 10.006 2.982 10.006 1.875 9.793 1.661"></polygon>
</svg>
