<svg version="1.1" id="Layer_1" xmlns="http://www.w3.org/2000/svg" xmlns:xlink="http://www.w3.org/1999/xlink" x="0px" y="0px"
	 width="100%" viewBox="0 0 200 200" enable-background="new 0 0 200 200" xml:space="preserve">
<path fill="#FEFEFE" opacity="1.000000" stroke="none" 
	d="
M133.000000,201.000000 
	C88.666672,201.000000 44.833340,201.000000 1.000006,201.000000 
	C1.000004,134.333344 1.000004,67.666679 1.000002,1.000015 
	C67.666656,1.000010 134.333313,1.000010 200.999969,1.000005 
	C200.999985,67.666649 200.999985,134.333298 201.000000,200.999969 
	C178.500000,201.000000 156.000000,201.000000 133.000000,201.000000 
M78.985161,65.985580 
	C78.985161,65.985580 78.913612,65.974579 78.509972,66.188019 
	C78.258484,66.376419 78.079948,66.618599 77.985489,66.985916 
	C77.985489,66.985916 77.914200,66.974457 77.510132,67.188217 
	C77.258354,67.376907 77.079803,67.619499 76.986725,67.986641 
	C76.986725,67.986641 76.916031,67.974640 76.511108,68.188576 
	C76.258766,68.377571 76.080086,68.620705 75.987740,68.987907 
	C75.987740,68.987907 75.917816,68.975212 75.512131,69.188644 
	C75.259270,69.377579 75.080429,69.620926 74.988174,69.988388 
	C74.988174,69.988388 74.918480,69.975716 74.512932,70.187904 
	C74.260048,70.375954 74.080872,70.618454 73.987427,70.986084 
	C73.987427,70.986084 73.916451,70.976097 73.510773,71.192047 
	C73.257492,71.383377 73.082787,71.630310 72.799690,72.428215 
	C72.509399,72.613960 72.219109,72.799698 71.517952,73.189384 
	C71.262276,73.375336 71.081482,73.617264 70.985962,73.986389 
	C70.985962,73.986389 70.914795,73.975594 70.510551,74.188416 
	C70.258713,74.376785 70.080276,74.619194 69.986191,74.986649 
	C69.986191,74.986649 69.915237,74.975266 69.510658,75.188454 
	C69.258598,75.377075 69.079994,75.619759 68.987007,75.987000 
	C68.987007,75.987000 68.916481,75.975006 68.511276,76.188728 
	C68.258797,76.377731 68.080055,76.620941 67.988007,76.988091 
	C67.988007,76.988091 67.918243,76.975243 67.511696,77.190163 
	C67.258362,77.380455 67.080276,77.625458 66.991867,77.991974 
	C66.991867,77.991974 66.925041,77.977562 66.516708,78.187706 
	C66.262077,78.375290 66.081467,78.617966 65.987022,78.986382 
	C65.987022,78.986382 65.916206,78.975258 65.510185,79.192192 
	C65.256691,79.384155 65.082024,79.631737 64.805725,80.430710 
	C64.515350,80.612717 64.224968,80.794724 63.191441,81.000061 
	C62.477467,82.031395 61.763493,83.062721 61.079800,84.538261 
	C61.079800,84.538261 61.042870,84.981972 60.504688,85.394760 
	C59.791569,88.717094 62.088123,88.665298 64.010757,88.997940 
	C64.010757,88.997940 64.254883,88.739380 64.088104,89.619080 
	C63.302887,94.148903 65.880417,94.452202 69.037788,94.010559 
	C69.037788,94.010559 69.253494,93.729858 69.158417,94.444519 
	C70.050186,94.988670 70.941956,95.532829 71.937393,96.063278 
	C71.937393,96.063278 71.923363,96.166901 71.973930,96.872208 
	C74.922447,99.608719 77.870972,102.345222 80.954971,105.066032 
	C80.954971,105.066032 80.951675,105.202385 81.170975,105.547623 
	C81.346153,105.763138 81.559334,105.930138 81.938606,106.045029 
	C81.938606,106.045029 81.920357,106.171867 81.979767,106.872711 
	C82.942039,107.602684 83.904312,108.332657 84.948845,109.050858 
	C84.948845,109.050858 84.938118,109.133263 84.984642,109.835342 
	C85.927338,110.578568 86.870026,111.321785 88.325623,112.285576 
	C88.527649,112.590523 88.729675,112.895470 88.977272,113.900230 
	C91.864037,118.845108 95.037361,123.476082 101.506905,124.882751 
	C101.506905,124.882751 101.930588,124.843460 102.334793,125.415329 
	C106.519554,126.328331 105.541481,123.069389 105.997459,120.992622 
	C105.997459,120.992622 105.930008,120.969177 106.410156,120.780273 
	C106.598473,120.500854 106.786789,120.221436 106.997971,119.998276 
	C106.997971,119.998276 106.941872,119.974998 107.417313,119.780174 
	C107.603043,119.500542 107.788773,119.220901 107.997757,118.998009 
	C107.997757,118.998009 107.941109,118.974510 108.416771,118.779984 
	C108.602570,118.500328 108.788361,118.220673 108.997673,117.997955 
	C108.997673,117.997955 108.940849,117.974159 109.416321,117.780296 
	C109.602531,117.501236 109.788742,117.222176 109.998215,116.998505 
	C109.998215,116.998505 109.942970,116.974892 110.417397,116.780907 
	C110.603584,116.502502 110.789772,116.224106 110.998833,115.999168 
	C110.998833,115.999168 110.945526,115.975929 111.418388,115.782143 
	C111.604477,115.504852 111.790565,115.227570 111.999458,114.999962 
	C111.999458,114.999962 111.950020,114.976608 112.422028,114.781364 
	C112.606682,114.503281 112.791328,114.225197 112.996262,114.001419 
	C112.996262,114.001419 112.950813,113.965370 113.676201,113.986725 
	C115.156021,113.302582 116.635841,112.618439 118.731560,112.184799 
	C122.847359,116.299141 126.963165,120.413483 131.848480,125.297066 
	C131.848480,121.042084 131.850555,118.234314 131.848007,115.426544 
	C131.843735,110.711365 132.762909,105.729012 128.844009,102.022568 
	C130.776367,96.626114 126.170212,100.060013 124.238319,98.805023 
	C119.438812,94.282600 114.639313,89.760170 109.267754,84.698715 
	C115.308357,78.847939 119.978508,73.280029 125.653984,69.066124 
	C134.739166,62.320602 131.066757,53.420822 131.956024,44.253201 
	C117.947197,58.286522 104.807144,71.449554 90.362419,85.919533 
	C95.450157,90.418983 100.672340,95.037323 105.110527,100.002281 
	C104.762444,101.029778 104.414360,102.057281 104.004677,103.003136 
	C104.004677,103.003136 104.083969,103.067795 103.309845,103.001419 
	C100.940071,102.304321 98.570305,101.607224 96.074379,100.924324 
	C96.074379,100.924324 96.088737,100.798180 96.025551,100.110580 
	C95.089478,99.382637 94.153412,98.654701 92.610397,97.647522 
	C91.098183,96.026398 89.585968,94.405273 88.034592,92.029663 
	C88.022758,91.019470 88.010918,90.009277 88.567429,88.929268 
	C88.889900,88.624702 89.212372,88.320145 89.534851,88.015587 
	C89.325455,87.834114 89.116058,87.652641 88.906654,87.471161 
	C88.604744,87.981079 88.302826,88.490997 87.293129,88.930702 
	C85.929619,88.590393 84.566116,88.250084 83.076637,87.926498 
	C83.076637,87.926498 83.088135,87.799942 83.053932,87.085182 
	C84.317268,84.629967 85.485329,82.119270 86.872910,79.736404 
	C88.067482,77.684982 89.512383,75.779320 90.948463,73.948181 
	C90.948463,73.948181 90.809128,73.846832 91.544594,73.893684 
	C94.192902,72.330368 97.175682,71.135094 99.404198,69.109856 
	C102.142326,66.621506 104.284866,63.466614 106.570831,60.511639 
	C106.768105,60.256630 106.113258,59.342419 106.004410,58.333359 
	C106.173454,58.079536 106.408775,57.930096 107.455215,57.881729 
	C107.930229,57.153507 108.405251,56.425289 109.174759,55.108688 
	C109.396637,54.093643 109.618515,53.078598 110.398613,51.828209 
	C110.049026,49.671402 109.699432,47.514599 109.349838,45.357796 
	C107.235207,45.318821 105.816460,44.550068 104.678345,43.482220 
	C103.035339,41.940647 101.736717,40.970322 101.011818,44.080437 
	C101.011818,44.080437 101.107826,44.092144 100.354012,44.037251 
	C99.559364,45.004925 98.764709,45.972599 97.994835,46.998711 
	C97.994835,46.998711 97.933929,46.980808 97.520546,47.191990 
	C97.262413,47.382668 97.084335,47.630814 96.797562,48.431862 
	C96.505379,48.615753 96.213188,48.799644 95.512520,49.191162 
	C95.258820,49.379185 95.080032,49.622303 94.989014,49.989532 
	C94.989014,49.989532 94.920090,49.976212 94.513512,50.188305 
	C94.260124,50.376724 94.080612,50.619717 93.987000,50.987625 
	C93.987000,50.987625 93.916779,50.974918 93.511787,51.187759 
	C93.259392,51.376045 93.080154,51.618439 92.985825,51.986046 
	C92.985825,51.986046 92.914742,51.974163 92.510620,52.187817 
	C92.258766,52.376316 92.079948,52.618706 91.986023,52.986031 
	C91.986023,52.986031 91.914940,52.974342 91.510796,53.187885 
	C91.258896,53.376320 91.080101,53.618690 90.985931,53.986107 
	C90.985931,53.986107 90.914841,53.974548 90.510818,54.187943 
	C90.258926,54.376278 90.080437,54.618679 89.987381,54.985889 
	C89.987381,54.985889 89.916298,54.976078 89.510712,55.192013 
	C89.257500,55.383324 89.082802,55.630199 88.799187,56.427727 
	C88.508820,56.613560 88.218452,56.799389 87.517303,57.190163 
	C87.261726,57.376781 87.081398,57.619350 86.987625,57.988056 
	C86.987625,57.988056 86.917503,57.976299 86.512405,58.188015 
	C86.259979,58.375858 86.080795,58.617931 85.984512,58.986012 
	C85.984512,58.986012 85.912994,58.974598 85.509727,59.187271 
	C85.258484,59.375080 85.079704,59.616547 84.984184,59.983856 
	C84.984184,59.983856 84.911926,59.973583 84.508965,60.187988 
	C84.257889,60.376640 84.079460,60.618824 83.985596,60.985771 
	C83.985596,60.985771 83.914375,60.973846 83.510574,61.187500 
	C83.258888,61.375797 83.079857,61.617844 82.984985,61.985214 
	C82.984985,61.985214 82.913422,61.973595 82.510048,62.187683 
	C82.258568,62.376156 82.080116,62.618423 81.986923,62.985416 
	C81.986923,62.985416 81.915649,62.975414 81.510384,63.191723 
	C81.257339,63.383038 81.082581,63.629803 80.798294,64.427643 
	C80.507347,64.613213 80.216400,64.798782 79.515984,65.189255 
	C79.261292,65.375381 79.080811,65.616959 78.985161,65.985580 
M133.996216,92.996185 
	C133.996216,92.996185 134.005295,92.987610 134.450317,92.778198 
	C134.727066,92.574661 134.905029,92.305725 135.142899,91.501671 
	C135.336655,91.205048 135.609085,91.033051 136.420990,90.785973 
	C136.608704,90.515915 136.796417,90.245857 136.998779,90.000679 
	C136.998779,90.000679 136.977768,89.978920 137.703415,89.990242 
	C139.686798,89.371887 142.565750,89.462280 140.868179,85.350067 
	C140.799942,84.952644 140.731689,84.555214 141.246063,83.788086 
	C140.399704,83.232391 139.553345,82.676704 138.182388,81.864693 
	C137.419205,80.997536 136.656006,80.130386 135.953812,78.474548 
	C135.555420,77.100334 135.157043,75.726112 134.729996,74.253014 
	C132.688828,74.668007 130.535004,74.452248 129.586761,75.418983 
	C126.513672,78.552010 122.679031,81.767891 121.546249,85.653946 
	C120.897026,87.881165 124.345253,92.139931 128.941345,92.059425 
	C128.941345,92.059425 128.928452,92.167404 128.989594,92.879112 
	C129.609421,95.799637 131.147049,95.437233 132.998169,93.998169 
	C132.998169,93.998169 132.998566,93.986053 133.441208,93.787483 
	C133.717926,93.592865 133.900055,93.332153 133.996216,92.996185 
M150.283066,151.228653 
	C152.933044,149.818832 155.583008,148.408997 158.666718,146.768417 
	C158.666718,146.110245 158.666718,144.764542 158.666718,144.485062 
	C155.573776,142.177200 152.977203,140.239716 150.380646,138.302231 
	C150.115128,138.565033 149.849609,138.827850 149.584091,139.090652 
	C151.423706,141.210327 153.263306,143.329987 155.389389,145.779770 
	C153.456924,147.959396 151.659729,149.986465 150.037064,152.037476 
	C150.037064,152.037476 149.820526,152.096085 149.820526,152.096085 
	C149.820526,152.096085 149.950256,151.951065 150.283066,151.228653 
M85.549721,138.761307 
	C82.158051,138.761307 78.766380,138.761307 75.393448,138.761307 
	C75.393448,143.722366 75.393448,148.165970 75.393448,153.078506 
	C78.385681,153.078506 81.170242,153.200500 83.939804,153.048752 
	C87.715584,152.841888 90.833282,151.526215 91.431580,147.223343 
	C92.002090,143.120285 90.813499,139.982330 85.549721,138.761307 
M56.133850,140.622620 
	C53.851833,144.007858 53.235176,148.219238 56.203724,150.615417 
	C58.636459,152.579086 62.843842,152.952255 66.256233,152.926575 
	C69.809349,152.899857 71.722588,150.100983 71.921249,146.500885 
	C72.122543,142.853363 71.076988,139.375977 67.122086,138.934189 
	C63.729389,138.555176 60.172554,139.645493 56.133850,140.622620 
M100.738037,141.011765 
	C103.184349,140.895721 105.630661,140.779663 108.076973,140.663605 
	C108.066185,140.141617 108.055397,139.619614 108.044609,139.097626 
	C103.738739,139.097626 99.432869,139.097626 95.009605,139.097626 
	C95.009605,143.643448 95.009605,148.233475 95.009605,152.452835 
	C99.629524,152.452835 103.992096,152.452835 108.724167,152.452835 
	C106.012596,148.352982 99.404503,153.795441 97.843109,147.231903 
	C101.678139,146.950577 104.620674,146.734726 107.563202,146.518875 
	C107.561623,145.890350 107.560036,145.261826 107.558449,144.633301 
	C105.122902,144.505325 102.675224,144.478745 100.258949,144.189651 
	C99.500748,144.098923 98.827003,143.302231 98.114601,142.828690 
	C98.686081,142.229080 99.257568,141.629456 100.738037,141.011765 
M44.050629,141.134003 
	C46.615688,141.004395 49.180744,140.874771 52.960838,140.683762 
	C46.644623,137.041428 40.341377,137.997742 38.241161,141.971725 
	C36.213734,145.807938 37.785545,151.076950 41.430885,152.664291 
	C45.403427,154.394089 50.584633,153.280258 51.221336,151.472412 
	C48.034084,150.499283 44.609287,149.897598 41.798416,148.249100 
	C41.180260,147.886581 42.742649,143.805969 44.050629,141.134003 
M135.014038,142.666183 
	C133.543121,146.007507 132.072220,149.348831 130.601318,152.690155 
	C136.129333,146.960556 141.235382,147.280548 146.809418,152.532837 
	C144.390274,147.853806 141.971130,143.174789 139.077942,137.578873 
	C137.471619,139.521973 136.431778,140.779846 135.014038,142.666183 
M115.815773,142.033997 
	C115.102463,140.735123 114.389153,139.436234 113.675842,138.137360 
	C113.377968,138.341934 113.080086,138.546524 112.782211,138.751114 
	C112.782211,143.488602 112.782211,148.226089 112.782211,152.963562 
	C114.040260,151.224701 113.983368,149.472641 114.233330,147.765503 
	C114.485603,146.042496 115.042229,144.364014 115.815773,142.033997 
M126.962227,142.855713 
	C126.822456,141.418365 126.682686,139.981033 126.542908,138.543701 
	C126.010559,138.569031 125.478210,138.594376 124.945862,138.619720 
	C124.945862,141.306885 125.004128,143.995575 124.933670,146.680893 
	C124.789070,152.192474 124.760681,152.191727 126.959511,152.674393 
	C126.959511,149.673996 126.959511,146.715591 126.962227,142.855713 
M131.432404,68.703949 
	C131.704788,68.989319 131.977158,69.274696 132.249542,69.560059 
	C132.367630,69.447121 132.594635,69.242203 132.588135,69.234512 
	C132.333939,68.933533 132.058456,68.650536 131.432404,68.703949 
M66.411926,95.482727 
	C66.411926,95.482727 66.522987,95.416382 66.411926,95.482727 
z"/>
<path fill="#43B1E1" opacity="1.000000" stroke="none" 
	d="
M88.931709,113.200417 
	C88.729675,112.895470 88.527649,112.590523 87.982643,111.885300 
	C86.739151,110.701111 85.838631,109.917183 84.938118,109.133263 
	C84.938118,109.133263 84.948845,109.050858 84.806610,108.769287 
	C83.749710,107.715775 82.835030,106.943817 81.920357,106.171867 
	C81.920357,106.171867 81.938606,106.045029 81.826065,105.827530 
	C81.536819,105.329849 81.282875,105.193970 80.951675,105.202385 
	C80.951675,105.202385 80.954971,105.066032 80.784172,104.761917 
	C77.716705,101.694168 74.820038,98.930534 71.923363,96.166901 
	C71.923363,96.166901 71.937393,96.063278 71.792618,95.777985 
	C70.849731,94.905075 70.051613,94.317467 69.253494,93.729858 
	C69.253494,93.729858 69.037788,94.010559 69.066895,93.560249 
	C67.482300,91.653084 65.868591,90.196236 64.254883,88.739380 
	C64.254883,88.739380 64.010757,88.997940 64.062859,88.570290 
	C63.090931,87.089081 62.066898,86.035530 61.042870,84.981972 
	C61.042870,84.981972 61.079800,84.538261 61.332527,84.162003 
	C62.368366,82.849411 63.151478,81.913071 63.934593,80.976738 
	C64.224968,80.794724 64.515350,80.612717 65.125717,80.108086 
	C65.738953,79.594620 65.895782,79.324554 65.916206,78.975258 
	C65.916206,78.975258 65.987022,78.986382 66.213028,78.882561 
	C66.738861,78.595306 66.900871,78.328247 66.925041,77.977562 
	C66.925041,77.977562 66.991867,77.991974 67.216599,77.888657 
	C67.735352,77.594833 67.894318,77.324799 67.918243,76.975243 
	C67.918243,76.975243 67.988007,76.988091 68.213013,76.884109 
	C68.733704,76.592712 68.893188,76.324333 68.916481,75.975006 
	C68.916481,75.975006 68.987007,75.987000 69.212090,75.882935 
	C69.732445,75.591881 69.891800,75.324013 69.915237,74.975266 
	C69.915237,74.975266 69.986191,74.986649 70.212128,74.883186 
	C70.733521,74.592659 70.892433,74.324615 70.914795,73.975594 
	C70.914795,73.975594 70.985962,73.986389 71.211975,73.884003 
	C71.731071,73.596069 71.894684,73.330673 71.928818,72.985443 
	C72.219109,72.799698 72.509399,72.613960 73.123383,72.107269 
	C73.741280,71.596062 73.897736,71.325989 73.916451,70.976097 
	C73.916451,70.976097 73.987427,70.986084 74.212318,70.881302 
	C74.734390,70.591797 74.894814,70.324860 74.918480,69.975716 
	C74.918480,69.975716 74.988174,69.988388 75.213547,69.884644 
	C75.734093,69.592918 75.893723,69.324356 75.917816,68.975212 
	C75.917816,68.975212 75.987740,68.987907 76.212784,68.883789 
	C76.733131,68.592064 76.892532,68.323723 76.916031,67.974640 
	C76.916031,67.974640 76.986725,67.986641 77.211548,67.882225 
	C77.731163,67.590645 77.890442,67.322861 77.914200,66.974457 
	C77.914200,66.974457 77.985489,66.985916 78.211075,66.881989 
	C78.731544,66.590919 78.890533,66.323097 78.913612,65.974579 
	C78.913612,65.974579 78.985161,65.985580 79.210632,65.882706 
	C79.728714,65.594345 79.891830,65.329185 79.925453,64.984352 
	C80.216400,64.798782 80.507347,64.613213 81.122406,64.106613 
	C81.740807,63.595394 81.897179,63.325336 81.915649,62.975414 
	C81.915649,62.975414 81.986923,62.985416 82.211243,62.880234 
	C82.731117,62.589165 82.890411,62.322014 82.913422,61.973595 
	C82.913422,61.973595 82.984985,61.985214 83.210480,61.881088 
	C83.731308,61.590210 83.890778,61.322502 83.914375,60.973846 
	C83.914375,60.973846 83.985596,60.985771 84.210670,60.881477 
	C84.731102,60.590294 84.889824,60.322426 84.911926,59.973583 
	C84.911926,59.973583 84.984184,59.983856 85.209167,59.879196 
	C85.728020,59.588272 85.887634,59.321625 85.912994,58.974598 
	C85.912994,58.974598 85.984512,58.986012 86.211700,58.883286 
	C86.734924,58.593719 86.894463,58.325634 86.917503,57.976299 
	C86.917503,57.976299 86.987625,57.988056 87.213272,57.885719 
	C87.731895,57.596966 87.894951,57.330910 87.928085,56.985214 
	C88.218452,56.799389 88.508820,56.613560 89.123154,56.107033 
	C89.741486,55.596153 89.897873,55.326069 89.916298,54.976078 
	C89.916298,54.976078 89.987381,54.985889 90.211914,54.880898 
	C90.732368,54.590271 90.891830,54.323151 90.914841,53.974548 
	C90.914841,53.974548 90.985931,53.986107 91.211456,53.882092 
	C91.732323,53.591072 91.891640,53.323162 91.914940,52.974342 
	C91.914940,52.974342 91.986023,52.986031 92.211128,52.881607 
	C92.731270,52.590286 92.890770,52.322613 92.914742,51.974163 
	C92.914742,51.974163 92.985825,51.986046 93.211136,51.881786 
	C93.731476,51.590748 93.891586,51.323212 93.916779,50.974918 
	C93.916779,50.974918 93.987000,50.987625 94.212677,50.883881 
	C94.733940,50.593079 94.894524,50.325104 94.920090,49.976212 
	C94.920090,49.976212 94.989014,49.989532 95.213654,49.886761 
	C95.733017,49.597881 95.893921,49.331062 95.920998,48.983528 
	C96.213188,48.799644 96.505379,48.615753 97.125450,48.113564 
	C97.751343,47.605106 97.911537,47.333622 97.933929,46.980808 
	C97.933929,46.980808 97.994835,46.998711 98.273109,46.866783 
	C99.403534,45.853951 100.255684,44.973049 101.107826,44.092144 
	C101.107826,44.092144 101.011818,44.080437 101.326454,44.261333 
	C104.374191,46.982670 107.107292,49.523109 109.840393,52.063553 
	C109.618515,53.078598 109.396637,54.093643 108.725197,55.515686 
	C107.753883,56.576797 107.232132,57.230911 106.710388,57.885025 
	C106.408775,57.930096 106.173454,58.079536 105.613571,58.655930 
	C100.418190,63.934608 95.613655,68.890717 90.809128,73.846832 
	C90.809128,73.846832 90.948463,73.948181 90.575424,73.968842 
	C86.597710,77.291664 82.993034,80.593834 78.981239,84.268959 
	C80.943192,85.955788 82.015663,86.877869 83.088135,87.799942 
	C83.088135,87.799942 83.076637,87.926498 83.241211,88.220428 
	C84.961769,89.937614 86.517761,91.360878 88.073753,92.784142 
	C89.585968,94.405273 91.098183,96.026398 92.995773,98.076202 
	C94.283676,99.269310 95.186211,100.033745 96.088737,100.798180 
	C96.088737,100.798180 96.074379,100.924324 96.240555,101.228455 
	C97.584953,103.423897 98.763168,105.315224 100.207336,107.633453 
	C102.477982,104.959213 103.280975,104.013496 104.083969,103.067795 
	C104.083969,103.067795 104.004677,103.003136 104.319733,102.939674 
	C105.418274,102.253830 106.201752,101.631447 107.286491,101.151123 
	C110.412910,104.215874 113.238075,107.138557 115.923050,110.345116 
	C114.838837,111.741119 113.894821,112.853241 112.950806,113.965363 
	C112.950813,113.965370 112.996262,114.001419 112.742294,114.061935 
	C112.308891,114.407166 112.129456,114.691887 111.950020,114.976608 
	C111.950020,114.976608 111.999458,114.999962 111.741821,115.058563 
	C111.304634,115.403419 111.125076,115.689674 110.945526,115.975929 
	C110.945526,115.975929 110.998833,115.999168 110.741394,116.057663 
	C110.303619,116.402397 110.123299,116.688644 109.942978,116.974892 
	C109.942970,116.974892 109.998215,116.998505 109.740303,117.056374 
	C109.301880,117.400879 109.121368,117.687523 108.940857,117.974167 
	C108.940849,117.974159 108.997673,117.997955 108.739441,118.055328 
	C108.301178,118.399971 108.121147,118.687241 107.941109,118.974510 
	C107.941109,118.974510 107.997757,118.998009 107.739342,119.055023 
	C107.301239,119.399689 107.121559,119.687340 106.941872,119.974998 
	C106.941872,119.974998 106.997971,119.998276 106.739914,120.055069 
	C106.297905,120.397636 106.113953,120.683403 105.930008,120.969177 
	C105.930008,120.969177 105.997459,120.992622 105.678711,121.076157 
	C104.216835,122.387604 103.073708,123.615532 101.930588,124.843460 
	C101.930588,124.843460 101.506905,124.882751 101.111633,124.643036 
	C96.788139,120.669014 92.859924,116.934715 88.931709,113.200417 
z"/>
<path fill="#464749" opacity="1.000000" stroke="none" 
	d="
M116.063248,110.061241 
	C113.238075,107.138557 110.412910,104.215874 107.269348,100.916275 
	C106.598808,100.244797 106.246666,99.950226 105.894524,99.655655 
	C100.672340,95.037323 95.450157,90.418983 90.362419,85.919533 
	C104.807144,71.449554 117.947197,58.286522 131.956024,44.253201 
	C131.066757,53.420822 134.739166,62.320602 125.653984,69.066124 
	C119.978508,73.280029 115.308357,78.847939 109.267754,84.698715 
	C114.639313,89.760170 119.438812,94.282600 124.649368,99.214638 
	C126.067184,100.537003 127.073952,101.449745 128.080719,102.362488 
	C132.762909,105.729012 131.843735,110.711365 131.848007,115.426544 
	C131.850555,118.234314 131.848480,121.042084 131.848480,125.297066 
	C126.963165,120.413483 122.847359,116.299141 118.318565,111.786057 
	C117.291458,110.945297 116.677353,110.503273 116.063248,110.061241 
z"/>
<path fill="#4DB2DE" opacity="1.000000" stroke="none" 
	d="
M135.892822,79.263237 
	C136.656006,80.130386 137.419205,80.997536 138.573837,82.252289 
	C139.531342,83.145851 140.097382,83.651817 140.663437,84.157791 
	C140.731689,84.555214 140.799942,84.952644 140.600922,85.793747 
	C139.215027,87.484596 138.096405,88.731758 136.977768,89.978920 
	C136.977768,89.978920 136.998779,90.000679 136.746826,90.068298 
	C136.316650,90.419182 136.138428,90.702431 135.960205,90.985680 
	C135.609085,91.033051 135.336655,91.205048 134.825378,91.822113 
	C134.340332,92.424248 134.172806,92.705925 134.005295,92.987610 
	C134.005295,92.987610 133.996216,92.996185 133.751221,93.074074 
	C133.337006,93.429993 133.167786,93.708023 132.998566,93.986053 
	C132.998566,93.986053 132.998169,93.998169 132.660446,93.994873 
	C131.191299,93.383514 130.059875,92.775459 128.928452,92.167404 
	C128.928452,92.167404 128.941345,92.059425 128.779755,91.754326 
	C126.672287,89.334763 124.726433,87.220291 123.107414,85.460991 
	C126.316849,82.128006 129.119492,79.217484 132.026367,76.198708 
	C133.366455,77.260849 134.629639,78.262039 135.892822,79.263237 
z"/>
<path fill="#1A1A1A" opacity="1.000000" stroke="none" 
	d="
M85.951904,138.827133 
	C90.813499,139.982330 92.002090,143.120285 91.431580,147.223343 
	C90.833282,151.526215 87.715584,152.841888 83.939804,153.048752 
	C81.170242,153.200500 78.385681,153.078506 75.393448,153.078506 
	C75.393448,148.165970 75.393448,143.722366 75.393448,138.761307 
	C78.766380,138.761307 82.158051,138.761307 85.951904,138.827133 
M78.938133,146.336517 
	C79.037422,147.744980 79.136711,149.153442 79.232437,150.511322 
	C86.120697,150.666718 88.178566,149.395294 87.946060,145.447845 
	C87.721565,141.636230 85.487198,140.628723 78.928375,141.574265 
	C78.928375,142.828049 78.928375,144.131042 78.938133,146.336517 
z"/>
<path fill="#171717" opacity="1.000000" stroke="none" 
	d="
M56.411076,140.354340 
	C60.172554,139.645493 63.729389,138.555176 67.122086,138.934189 
	C71.076988,139.375977 72.122543,142.853363 71.921249,146.500885 
	C71.722588,150.100983 69.809349,152.899857 66.256233,152.926575 
	C62.843842,152.952255 58.636459,152.579086 56.203724,150.615417 
	C53.235176,148.219238 53.851833,144.007858 56.411076,140.354340 
M65.980331,141.232361 
	C65.001778,141.100433 63.825394,140.559814 63.084343,140.918518 
	C61.343613,141.761154 58.908260,142.743301 58.436417,144.210159 
	C57.916958,145.825058 58.698238,148.962906 59.970146,149.768997 
	C61.549026,150.769623 64.807541,150.923431 66.283363,149.907410 
	C69.346916,147.798264 68.824005,144.578262 65.980331,141.232361 
z"/>
<path fill="#1E1E1E" opacity="1.000000" stroke="none" 
	d="
M100.283539,141.020813 
	C99.257568,141.629456 98.686081,142.229080 98.114601,142.828690 
	C98.827003,143.302231 99.500748,144.098923 100.258949,144.189651 
	C102.675224,144.478745 105.122902,144.505325 107.558449,144.633301 
	C107.560036,145.261826 107.561623,145.890350 107.563202,146.518875 
	C104.620674,146.734726 101.678139,146.950577 97.843109,147.231903 
	C99.404503,153.795441 106.012596,148.352982 108.724167,152.452835 
	C103.992096,152.452835 99.629524,152.452835 95.009605,152.452835 
	C95.009605,148.233475 95.009605,143.643448 95.009605,139.097626 
	C99.432869,139.097626 103.738739,139.097626 108.044609,139.097626 
	C108.055397,139.619614 108.066185,140.141617 108.076973,140.663605 
	C105.630661,140.779663 103.184349,140.895721 100.283539,141.020813 
z"/>
<path fill="#171717" opacity="1.000000" stroke="none" 
	d="
M43.675762,141.285767 
	C42.742649,143.805969 41.180260,147.886581 41.798416,148.249100 
	C44.609287,149.897598 48.034084,150.499283 51.221336,151.472412 
	C50.584633,153.280258 45.403427,154.394089 41.430885,152.664291 
	C37.785545,151.076950 36.213734,145.807938 38.241161,141.971725 
	C40.341377,137.997742 46.644623,137.041428 52.960838,140.683762 
	C49.180744,140.874771 46.615688,141.004395 43.675762,141.285767 
z"/>
<path fill="#222222" opacity="1.000000" stroke="none" 
	d="
M135.202972,142.351944 
	C136.431778,140.779846 137.471619,139.521973 139.077942,137.578873 
	C141.971130,143.174789 144.390274,147.853806 146.809418,152.532837 
	C141.235382,147.280548 136.129333,146.960556 130.601318,152.690155 
	C132.072220,149.348831 133.543121,146.007507 135.202972,142.351944 
M138.516403,147.586288 
	C139.424179,147.462250 140.331940,147.338196 141.809540,147.136276 
	C140.602905,144.807983 139.651154,142.971527 138.699402,141.135071 
	C138.093781,143.471939 133.137817,145.151001 138.516403,147.586288 
z"/>
<path fill="#F7FCFC" opacity="1.000000" stroke="none" 
	d="
M135.923309,78.868896 
	C134.629639,78.262039 133.366455,77.260849 132.026367,76.198708 
	C129.119492,79.217484 126.316849,82.128006 123.107414,85.460991 
	C124.726433,87.220291 126.672287,89.334763 128.725754,91.760727 
	C124.345253,92.139931 120.897026,87.881165 121.546249,85.653946 
	C122.679031,81.767891 126.513672,78.552010 129.586761,75.418983 
	C130.535004,74.452248 132.688828,74.668007 134.729996,74.253014 
	C135.157043,75.726112 135.555420,77.100334 135.923309,78.868896 
z"/>
<path fill="#2D2D2D" opacity="1.000000" stroke="none" 
	d="
M149.862534,152.013519 
	C151.659729,149.986465 153.456924,147.959396 155.389389,145.779770 
	C153.263306,143.329987 151.423706,141.210327 149.584091,139.090652 
	C149.849609,138.827850 150.115128,138.565033 150.380646,138.302231 
	C152.977203,140.239716 155.573776,142.177200 158.666718,144.485062 
	C158.666718,144.764542 158.666718,146.110245 158.666718,146.768417 
	C155.583008,148.408997 152.933044,149.818832 150.098145,151.610260 
	C149.913208,151.991867 149.862534,152.013519 149.862534,152.013519 
z"/>
<path fill="#F3FBFD" opacity="1.000000" stroke="none" 
	d="
M91.176865,73.870255 
	C95.613655,68.890717 100.418190,63.934608 105.538483,58.856461 
	C106.113258,59.342419 106.768105,60.256630 106.570831,60.511639 
	C104.284866,63.466614 102.142326,66.621506 99.404198,69.109856 
	C97.175682,71.135094 94.192902,72.330368 91.176865,73.870255 
z"/>
<path fill="#2B2B2B" opacity="1.000000" stroke="none" 
	d="
M115.640640,142.350006 
	C115.042229,144.364014 114.485603,146.042496 114.233330,147.765503 
	C113.983368,149.472641 114.040260,151.224701 112.782211,152.963562 
	C112.782211,148.226089 112.782211,143.488602 112.782211,138.751114 
	C113.080086,138.546524 113.377968,138.341934 113.675842,138.137360 
	C114.389153,139.436234 115.102463,140.735123 115.640640,142.350006 
z"/>
<path fill="#F3FBFD" opacity="1.000000" stroke="none" 
	d="
M83.071030,87.442566 
	C82.015663,86.877869 80.943192,85.955788 78.981239,84.268959 
	C82.993034,80.593834 86.597710,77.291664 90.524490,73.899361 
	C89.512383,75.779320 88.067482,77.684982 86.872910,79.736404 
	C85.485329,82.119270 84.317268,84.629967 83.071030,87.442566 
z"/>
<path fill="#F3FBFD" opacity="1.000000" stroke="none" 
	d="
M110.119507,51.945877 
	C107.107292,49.523109 104.374191,46.982670 101.358856,44.297234 
	C101.736717,40.970322 103.035339,41.940647 104.678345,43.482220 
	C105.816460,44.550068 107.235207,45.318821 109.349838,45.357796 
	C109.699432,47.514599 110.049026,49.671402 110.119507,51.945877 
z"/>
<path fill="#171717" opacity="1.000000" stroke="none" 
	d="
M126.960869,143.306458 
	C126.959511,146.715591 126.959511,149.673996 126.959511,152.674393 
	C124.760681,152.191727 124.789070,152.192474 124.933670,146.680893 
	C125.004128,143.995575 124.945862,141.306885 124.945862,138.619720 
	C125.478210,138.594376 126.010559,138.569031 126.542908,138.543701 
	C126.682686,139.981033 126.822456,141.418365 126.960869,143.306458 
z"/>
<path fill="#F3FBFD" opacity="1.000000" stroke="none" 
	d="
M88.954491,113.550323 
	C92.859924,116.934715 96.788139,120.669014 100.902008,124.679398 
	C95.037361,123.476082 91.864037,118.845108 88.954491,113.550323 
z"/>
<path fill="#F3FBFD" opacity="1.000000" stroke="none" 
	d="
M71.948647,96.519554 
	C74.820038,98.930534 77.716705,101.694168 80.716431,104.769768 
	C77.870972,102.345222 74.922447,99.608719 71.948647,96.519554 
z"/>
<path fill="#F3FBFD" opacity="1.000000" stroke="none" 
	d="
M103.696899,103.034607 
	C103.280975,104.013496 102.477982,104.959213 100.207336,107.633453 
	C98.763168,105.315224 97.584953,103.423897 96.303635,101.221359 
	C98.570305,101.607224 100.940071,102.304321 103.696899,103.034607 
z"/>
<path fill="#F3FBFD" opacity="1.000000" stroke="none" 
	d="
M64.171494,89.179230 
	C65.868591,90.196236 67.482300,91.653084 69.181274,93.424576 
	C65.880417,94.452202 63.302887,94.148903 64.171494,89.179230 
z"/>
<path fill="#F3FBFD" opacity="1.000000" stroke="none" 
	d="
M88.054169,92.406906 
	C86.517761,91.360878 84.961769,89.937614 83.304199,88.212067 
	C84.566116,88.250084 85.929619,88.590393 87.646561,88.965347 
	C88.000000,89.000000 87.999084,88.999084 87.999084,88.999084 
	C88.010918,90.009277 88.022758,91.019470 88.054169,92.406906 
z"/>
<path fill="#F7FCFC" opacity="1.000000" stroke="none" 
	d="
M128.462372,102.192528 
	C127.073952,101.449745 126.067184,100.537003 124.953064,99.343124 
	C126.170212,100.060013 130.776367,96.626114 128.462372,102.192528 
z"/>
<path fill="#F3FBFD" opacity="1.000000" stroke="none" 
	d="
M102.132690,125.129395 
	C103.073708,123.615532 104.216835,122.387604 105.657562,121.047379 
	C105.541481,123.069389 106.519554,126.328331 102.132690,125.129395 
z"/>
<path fill="#F3FBFD" opacity="1.000000" stroke="none" 
	d="
M60.773781,85.188370 
	C62.066898,86.035530 63.090931,87.089081 64.189674,88.445496 
	C62.088123,88.665298 59.791569,88.717094 60.773781,85.188370 
z"/>
<path fill="#F7FCFC" opacity="1.000000" stroke="none" 
	d="
M137.340591,89.984581 
	C138.096405,88.731758 139.215027,87.484596 140.615601,86.095779 
	C142.565750,89.462280 139.686798,89.371887 137.340591,89.984581 
z"/>
<path fill="#F3FBFD" opacity="1.000000" stroke="none" 
	d="
M115.923050,110.345116 
	C116.677353,110.503273 117.291458,110.945297 118.010612,111.660812 
	C116.635841,112.618439 115.156021,113.302582 113.313507,113.976044 
	C113.894821,112.853241 114.838837,111.741119 115.923050,110.345116 
z"/>
<path fill="#F7FCFC" opacity="1.000000" stroke="none" 
	d="
M128.959015,92.523254 
	C130.059875,92.775459 131.191299,93.383514 132.654449,93.993996 
	C131.147049,95.437233 129.609421,95.799637 128.959015,92.523254 
z"/>
<path fill="#F3FBFD" opacity="1.000000" stroke="none" 
	d="
M63.563019,80.988403 
	C63.151478,81.913071 62.368366,82.849411 61.317383,83.939903 
	C61.763493,83.062721 62.477467,82.031395 63.563019,80.988403 
z"/>
<path fill="#F3FBFD" opacity="1.000000" stroke="none" 
	d="
M84.961380,109.484299 
	C85.838631,109.917183 86.739151,110.701111 87.726196,111.775024 
	C86.870026,111.321785 85.927338,110.578568 84.961380,109.484299 
z"/>
<path fill="#F3FBFD" opacity="1.000000" stroke="none" 
	d="
M100.730919,44.064697 
	C100.255684,44.973049 99.403534,45.853951 98.260719,46.837563 
	C98.764709,45.972599 99.559364,45.004925 100.730919,44.064697 
z"/>
<path fill="#F3FBFD" opacity="1.000000" stroke="none" 
	d="
M96.057144,100.454376 
	C95.186211,100.033745 94.283676,99.269310 93.299240,98.215820 
	C94.153412,98.654701 95.089478,99.382637 96.057144,100.454376 
z"/>
<path fill="#F3FBFD" opacity="1.000000" stroke="none" 
	d="
M105.502533,99.828964 
	C106.246666,99.950226 106.598808,100.244797 106.968094,100.774216 
	C106.201752,101.631447 105.418274,102.253830 104.350540,102.980499 
	C104.414360,102.057281 104.762444,101.029778 105.502533,99.828964 
z"/>
<path fill="#F3FBFD" opacity="1.000000" stroke="none" 
	d="
M81.950058,106.522293 
	C82.835030,106.943817 83.749710,107.715775 84.765488,108.775177 
	C83.904312,108.332657 82.942039,107.602684 81.950058,106.522293 
z"/>
<path fill="#F7FCFC" opacity="1.000000" stroke="none" 
	d="
M140.954742,83.972939 
	C140.097382,83.651817 139.531342,83.145851 138.836136,82.380447 
	C139.553345,82.676704 140.399704,83.232391 140.954742,83.972939 
z"/>
<path fill="#F3FBFD" opacity="1.000000" stroke="none" 
	d="
M69.205956,94.087189 
	C70.051613,94.317467 70.849731,94.905075 71.740784,95.784836 
	C70.941956,95.532829 70.050186,94.988670 69.205956,94.087189 
z"/>
<path fill="#F3FBFD" opacity="1.000000" stroke="none" 
	d="
M88.000458,89.000458 
	C88.302826,88.490997 88.604744,87.981079 88.906662,87.471161 
	C89.116058,87.652641 89.325455,87.834114 89.534851,88.015587 
	C89.212372,88.320145 88.889900,88.624702 88.283257,88.964172 
	C87.999084,88.999084 88.000000,89.000000 88.000458,89.000458 
z"/>
<path fill="#F7FCFC" opacity="1.000000" stroke="none" 
	d="
M131.609070,68.534561 
	C132.058456,68.650536 132.333939,68.933533 132.588135,69.234512 
	C132.594635,69.242203 132.367630,69.447121 132.249542,69.560059 
	C131.977158,69.274696 131.704788,68.989319 131.609070,68.534561 
z"/>
<path fill="#F3FBFD" opacity="1.000000" stroke="none" 
	d="
M107.082802,57.883377 
	C107.232132,57.230911 107.753883,56.576797 108.577957,55.809875 
	C108.405251,56.425289 107.930229,57.153507 107.082802,57.883377 
z"/>
<path fill="#F3FBFD" opacity="1.000000" stroke="none" 
	d="
M112.186020,114.878983 
	C112.129456,114.691887 112.308891,114.407166 112.732147,114.034775 
	C112.791328,114.225197 112.606682,114.503281 112.186020,114.878983 
z"/>
<path fill="#F3FBFD" opacity="1.000000" stroke="none" 
	d="
M81.713013,63.083569 
	C81.897179,63.325336 81.740807,63.595394 81.216316,63.858803 
	C81.082581,63.629803 81.257339,63.383038 81.713013,63.083569 
z"/>
<path fill="#F3FBFD" opacity="1.000000" stroke="none" 
	d="
M111.181953,115.879036 
	C111.125076,115.689674 111.304634,115.403419 111.730423,115.033722 
	C111.790565,115.227570 111.604477,115.504852 111.181953,115.879036 
z"/>
<path fill="#F3FBFD" opacity="1.000000" stroke="none" 
	d="
M110.180191,116.877899 
	C110.123299,116.688644 110.303619,116.402397 110.729950,116.030930 
	C110.789772,116.224106 110.603584,116.502502 110.180191,116.877899 
z"/>
<path fill="#F3FBFD" opacity="1.000000" stroke="none" 
	d="
M109.178589,117.877228 
	C109.121368,117.687523 109.301880,117.400879 109.728668,117.028679 
	C109.788742,117.222176 109.602531,117.501236 109.178589,117.877228 
z"/>
<path fill="#F3FBFD" opacity="1.000000" stroke="none" 
	d="
M108.178940,118.877243 
	C108.121147,118.687241 108.301178,118.399971 108.727684,118.026855 
	C108.788361,118.220673 108.602570,118.500328 108.178940,118.877243 
z"/>
<path fill="#F3FBFD" opacity="1.000000" stroke="none" 
	d="
M107.179596,119.877586 
	C107.121559,119.687340 107.301239,119.399689 107.727715,119.026642 
	C107.788773,119.220901 107.603043,119.500542 107.179596,119.877586 
z"/>
<path fill="#F3FBFD" opacity="1.000000" stroke="none" 
	d="
M106.170082,120.874725 
	C106.113953,120.683403 106.297905,120.397636 106.728477,120.026939 
	C106.786789,120.221436 106.598473,120.500854 106.170082,120.874725 
z"/>
<path fill="#F3FBFD" opacity="1.000000" stroke="none" 
	d="
M84.710449,60.080788 
	C84.889824,60.322426 84.731102,60.590294 84.204712,60.845863 
	C84.079460,60.618824 84.257889,60.376640 84.710449,60.080788 
z"/>
<path fill="#F3FBFD" opacity="1.000000" stroke="none" 
	d="
M85.711365,59.080933 
	C85.887634,59.321625 85.728020,59.588272 85.203766,59.843105 
	C85.079704,59.616547 85.258484,59.375080 85.711365,59.080933 
z"/>
<path fill="#F3FBFD" opacity="1.000000" stroke="none" 
	d="
M86.714951,58.082157 
	C86.894463,58.325634 86.734924,58.593719 86.206879,58.847397 
	C86.080795,58.617931 86.259979,58.375858 86.714951,58.082157 
z"/>
<path fill="#F3FBFD" opacity="1.000000" stroke="none" 
	d="
M87.722694,57.087688 
	C87.894951,57.330910 87.731895,57.596966 87.207626,57.850624 
	C87.081398,57.619350 87.261726,57.376781 87.722694,57.087688 
z"/>
<path fill="#F3FBFD" opacity="1.000000" stroke="none" 
	d="
M89.713501,55.084045 
	C89.897873,55.326069 89.741486,55.596153 89.216873,55.859489 
	C89.082802,55.630199 89.257500,55.383324 89.713501,55.084045 
z"/>
<path fill="#F3FBFD" opacity="1.000000" stroke="none" 
	d="
M90.712830,54.081245 
	C90.891830,54.323151 90.732368,54.590271 90.205902,54.845524 
	C90.080437,54.618679 90.258926,54.376278 90.712830,54.081245 
z"/>
<path fill="#F3FBFD" opacity="1.000000" stroke="none" 
	d="
M91.712868,53.081116 
	C91.891640,53.323162 91.732323,53.591072 91.205704,53.846539 
	C91.080101,53.618690 91.258896,53.376320 91.712868,53.081116 
z"/>
<path fill="#F3FBFD" opacity="1.000000" stroke="none" 
	d="
M92.712677,52.080990 
	C92.890770,52.322613 92.731270,52.590286 92.205200,52.846085 
	C92.079948,52.618706 92.258766,52.376316 92.712677,52.080990 
z"/>
<path fill="#F3FBFD" opacity="1.000000" stroke="none" 
	d="
M93.714279,51.081337 
	C93.891586,51.323212 93.731476,51.590748 93.205276,51.846230 
	C93.080154,51.618439 93.259392,51.376045 93.714279,51.081337 
z"/>
<path fill="#F3FBFD" opacity="1.000000" stroke="none" 
	d="
M94.716797,50.082260 
	C94.894524,50.325104 94.733940,50.593079 94.206657,50.848709 
	C94.080612,50.619717 94.260124,50.376724 94.716797,50.082260 
z"/>
<path fill="#F3FBFD" opacity="1.000000" stroke="none" 
	d="
M95.716759,49.087345 
	C95.893921,49.331062 95.733017,49.597881 95.207230,49.852253 
	C95.080032,49.622303 95.258820,49.379185 95.716759,49.087345 
z"/>
<path fill="#F3FBFD" opacity="1.000000" stroke="none" 
	d="
M97.727234,47.086399 
	C97.911537,47.333622 97.751343,47.605106 97.219833,47.865845 
	C97.084335,47.630814 97.262413,47.382668 97.727234,47.086399 
z"/>
<path fill="#2D2D2D" opacity="1.000000" stroke="none" 
	d="
M149.931732,151.971466 
	C149.950256,151.951065 149.820526,152.096085 149.820526,152.096085 
	C149.820526,152.096085 150.037064,152.037476 149.949799,152.025497 
	C149.862534,152.013519 149.913208,151.991867 149.931732,151.971466 
z"/>
<path fill="#F3FBFD" opacity="1.000000" stroke="none" 
	d="
M66.467453,95.449554 
	C66.522987,95.416382 66.411926,95.482727 66.467453,95.449554 
z"/>
<path fill="#F3FBFD" opacity="1.000000" stroke="none" 
	d="
M65.713196,79.083725 
	C65.895782,79.324554 65.738953,79.594620 65.215942,79.860199 
	C65.082024,79.631737 65.256691,79.384155 65.713196,79.083725 
z"/>
<path fill="#F3FBFD" opacity="1.000000" stroke="none" 
	d="
M67.714966,77.082703 
	C67.894318,77.324799 67.735352,77.594833 67.209389,77.855255 
	C67.080276,77.625458 67.258362,77.380455 67.714966,77.082703 
z"/>
<path fill="#F3FBFD" opacity="1.000000" stroke="none" 
	d="
M68.713882,76.081863 
	C68.893188,76.324333 68.733704,76.592712 68.206535,76.849243 
	C68.080055,76.620941 68.258797,76.377731 68.713882,76.081863 
z"/>
<path fill="#F3FBFD" opacity="1.000000" stroke="none" 
	d="
M69.712952,75.081863 
	C69.891800,75.324013 69.732445,75.591881 69.206009,75.847687 
	C69.079994,75.619759 69.258598,75.377075 69.712952,75.081863 
z"/>
<path fill="#F3FBFD" opacity="1.000000" stroke="none" 
	d="
M70.712677,74.082001 
	C70.892433,74.324615 70.733521,74.592659 70.206642,74.847679 
	C70.080276,74.619194 70.258713,74.376785 70.712677,74.082001 
z"/>
<path fill="#F3FBFD" opacity="1.000000" stroke="none" 
	d="
M71.723389,73.087418 
	C71.894684,73.330673 71.731071,73.596069 71.206772,73.848389 
	C71.081482,73.617264 71.262276,73.375336 71.723389,73.087418 
z"/>
<path fill="#F7FCFC" opacity="1.000000" stroke="none" 
	d="
M136.190598,90.885826 
	C136.138428,90.702431 136.316650,90.419182 136.739502,90.055862 
	C136.796417,90.245857 136.608704,90.515915 136.190598,90.885826 
z"/>
<path fill="#F3FBFD" opacity="1.000000" stroke="none" 
	d="
M73.713608,71.084076 
	C73.897736,71.325989 73.741280,71.596062 73.216858,71.859589 
	C73.082787,71.630310 73.257492,71.383377 73.713608,71.084076 
z"/>
<path fill="#F7FCFC" opacity="1.000000" stroke="none" 
	d="
M134.227814,92.882904 
	C134.172806,92.705925 134.340332,92.424248 134.746017,92.056976 
	C134.905029,92.305725 134.727066,92.574661 134.227814,92.882904 
z"/>
<path fill="#F7FCFC" opacity="1.000000" stroke="none" 
	d="
M133.219879,93.886765 
	C133.167786,93.708023 133.337006,93.429993 133.746918,93.078659 
	C133.900055,93.332153 133.717926,93.592865 133.219879,93.886765 
z"/>
<path fill="#F3FBFD" opacity="1.000000" stroke="none" 
	d="
M83.712479,61.080673 
	C83.890778,61.322502 83.731308,61.590210 83.204727,61.845299 
	C83.079857,61.617844 83.258888,61.375797 83.712479,61.080673 
z"/>
<path fill="#F3FBFD" opacity="1.000000" stroke="none" 
	d="
M74.715706,70.081810 
	C74.894814,70.324860 74.734390,70.591797 74.206306,70.845978 
	C74.080872,70.618454 74.260048,70.375954 74.715706,70.081810 
z"/>
<path fill="#F3FBFD" opacity="1.000000" stroke="none" 
	d="
M75.714973,69.081924 
	C75.893723,69.324356 75.734093,69.592918 75.207268,69.849792 
	C75.080429,69.620926 75.259270,69.377579 75.714973,69.081924 
z"/>
<path fill="#F3FBFD" opacity="1.000000" stroke="none" 
	d="
M76.713570,68.081604 
	C76.892532,68.323723 76.733131,68.592064 76.206451,68.848816 
	C76.080086,68.620705 76.258766,68.377571 76.713570,68.081604 
z"/>
<path fill="#F3FBFD" opacity="1.000000" stroke="none" 
	d="
M77.712166,67.081337 
	C77.890442,67.322861 77.731163,67.590645 77.205429,67.846901 
	C77.079803,67.619499 77.258354,67.376907 77.712166,67.081337 
z"/>
<path fill="#F3FBFD" opacity="1.000000" stroke="none" 
	d="
M78.711792,66.081299 
	C78.890533,66.323097 78.731544,66.590919 78.205505,66.846313 
	C78.079948,66.618599 78.258484,66.376419 78.711792,66.081299 
z"/>
<path fill="#F3FBFD" opacity="1.000000" stroke="none" 
	d="
M81.061325,105.375000 
	C81.282875,105.193970 81.536819,105.329849 81.762016,105.829330 
	C81.559334,105.930138 81.346153,105.763138 81.061325,105.375000 
z"/>
<path fill="#F3FBFD" opacity="1.000000" stroke="none" 
	d="
M79.720718,65.086807 
	C79.891830,65.329185 79.728714,65.594345 79.205322,65.846909 
	C79.080811,65.616959 79.261292,65.375381 79.720718,65.086807 
z"/>
<path fill="#F3FBFD" opacity="1.000000" stroke="none" 
	d="
M66.720871,78.082634 
	C66.900871,78.328247 66.738861,78.595306 66.206955,78.847237 
	C66.081467,78.617966 66.262077,78.375290 66.720871,78.082634 
z"/>
<path fill="#F3FBFD" opacity="1.000000" stroke="none" 
	d="
M82.711731,62.080639 
	C82.890411,62.322014 82.731117,62.589165 82.205124,62.844769 
	C82.080116,62.618423 82.258568,62.376156 82.711731,62.080639 
z"/>
<path fill="#F0F0F0" opacity="1.000000" stroke="none" 
	d="
M78.933258,145.885284 
	C78.928375,144.131042 78.928375,142.828049 78.928375,141.574265 
	C85.487198,140.628723 87.721565,141.636230 87.946060,145.447845 
	C88.178566,149.395294 86.120697,150.666718 79.232437,150.511322 
	C79.136711,149.153442 79.037422,147.744980 78.933258,145.885284 
z"/>
<path fill="#F2F2F2" opacity="1.000000" stroke="none" 
	d="
M66.335785,141.471375 
	C68.824005,144.578262 69.346916,147.798264 66.283363,149.907410 
	C64.807541,150.923431 61.549026,150.769623 59.970146,149.768997 
	C58.698238,148.962906 57.916958,145.825058 58.436417,144.210159 
	C58.908260,142.743301 61.343613,141.761154 63.084343,140.918518 
	C63.825394,140.559814 65.001778,141.100433 66.335785,141.471375 
z"/>
<path fill="#D6D6D6" opacity="1.000000" stroke="none" 
	d="
M138.109985,147.583557 
	C133.137817,145.151001 138.093781,143.471939 138.699402,141.135071 
	C139.651154,142.971527 140.602905,144.807983 141.809540,147.136276 
	C140.331940,147.338196 139.424179,147.462250 138.109985,147.583557 
z"/>
</svg>