<?xml version="1.0" encoding="utf-8"?>
<!-- Generator: Adobe Illustrator 19.0.0, SVG Export Plug-In . SVG Version: 6.00 Build 0)  -->
<svg version="1.1" id="layer" xmlns="http://www.w3.org/2000/svg" xmlns:xlink="http://www.w3.org/1999/xlink" x="0px" y="0px"
	 viewBox="-153 -46 652 652" style="enable-background:new -153 -46 652 652;" xml:space="preserve">
<style type="text/css">
	.st0{fill:#8FC31F;}
</style>
<polyline points="54.3,237.7 54.3,319.3 98.6,319.3 98.6,312.9 62.1,312.9 62.1,280.1 92.1,280.1 92.1,274 62.1,274 62.1,244.1 
	96.5,244.1 96.5,237.7 54.3,237.7 "/>
<rect x="109.7" y="229.3" width="7.3" height="90.1"/>
<polyline points="186.5,229.3 186.5,319.3 193.6,319.3 193.6,297.4 202.3,285.3 221.2,319.3 229.4,319.3 214.2,291.6 206.4,282.1 
	227.9,254.2 220,254.2 192,291.2 193.6,274.8 193.6,229.3 186.5,229.3 "/>
<path d="M238.7,307.4v-47.1h-8v-6.2h8.4l3.3-17.6h3.5v17.6h14.6v6.2h-14.6v48.2c0,4.5,1.1,6,5.4,6h10.2l0.4,3.6
	c-3.8,1.2-7.8,2.4-12.6,2.4C241.7,320.6,238.7,316.7,238.7,307.4"/>
<path d="M283.4,255.4c3.3-1.5,6.3-2.4,9.5-2.4c4,0,6.9,0.9,8.5,1.6l-1.5,6.8c-2.8-1.1-5-1.8-9-1.8c-5.6,0-9.4,2.8-13.6,6.3v53.4
	h-7.2v-65.1h3.5l3.4,7.9L283.4,255.4"/>
<path d="M346.1,288v-1.6c0-21-6.6-27.4-17.2-27.4c-10.7,0-17.4,6.5-17.4,26.7v1.6c0,20.5,7.3,28,17.4,28
	C338.9,315.3,346.1,307.8,346.1,288 M303.9,287c0-22.5,10.4-34,25-34c14.6,0,24.7,11.5,24.7,33.6c0,22.6-9.8,34.5-24.7,34.5
	C313.9,321.1,303.9,309.2,303.9,287"/>
<path d="M371.7,309.8c4.3,3.4,9,5.7,14.8,5.7c11.4,0,17.1-7.2,17.1-28.2v-1.8c0-21.1-6.4-26.5-15.6-26.5c-8.4,0-13.4,4.3-16.3,7.2
	V309.8 M367.8,319.7h-3.3v-90.5h7.2v31.4c3.6-3.6,9.2-7.6,17.1-7.6c13.7,0,22.2,10.2,22.2,33.1c0,25-8.8,35-23.6,35
	c-4.1,0-7.5-1-9.3-1.6l-7.8-6.7L367.8,319.7z"/>
<path d="M422.2,254.2h7.2v65.1h-7.2V254.2z M420.2,234.5c0-3.3,2.6-5.8,5.6-5.8c3,0,5.6,2.5,5.6,5.8c0,3.3-2.6,5.8-5.6,5.8
	C422.8,240.3,420.2,237.8,420.2,234.5"/>
<path d="M445.8,307.4v-47.1h-8v-6.2h8.4l3.3-17.6h3.5v17.6h14.6v6.2H453v48.2c0,4.5,1.1,6,5.4,6h10.2l0.4,3.6
	c-3.8,1.2-7.8,2.4-12.5,2.4C448.8,320.6,445.8,316.7,445.8,307.4"/>
<path class="st0" d="M-94.2,339.8c-22,0-36.9-14.3-36.9-35.2c0-12.7,5.4-22.9,14.8-29c-8.3-5.4-14.1-14.1-14.1-28.6
	c0-20.1,15.4-35,36.8-35c8.1,0,14.6,2.1,19.6,5.3c2.1,1.3,3.7,3.6,3.7,6.3c0,3.9-2.9,6.9-6.8,6.9c-1.4,0-3.1-0.6-4.6-1.4
	c-3.5-1.9-7.2-3.2-11.8-3.2c-12.7,0-22.2,9-22.2,21.1c0,12.8,8.9,21.8,22.8,21.8c3.6,0,5.9-0.4,9-0.4c4.3,0,7.5,3,7.5,7.3
	c0,4.3-3.1,7.5-7.5,7.5c-3.1,0-4.6-0.5-9-0.5c-13.1,0-23.5,8.3-23.5,21.9c0,12.8,8.1,21.3,22.4,21.3c6.4,0,11.7-2.2,15.7-5
	c1.8-1.3,3.5-1.8,4.9-1.8c3.8,0,6.5,2.8,6.5,6.7c0,2.6-1.7,5.3-3.7,6.8C-75.7,336.6-83.9,339.8-94.2,339.8"/>
<path class="st0" d="M-32.4,325.9c12.1,0,21.9-8.4,21.9-21.1c0-13.5-9-21.9-23.3-21.9c-3.7,0-4.7,0.4-6.9,0.4
	c-4.3,0-7.6-2.8-7.6-7.5c0-4.3,3.3-7.3,7.6-7.3c3,0,2.8,0.2,6.6,0.2c11.7,0,22.3-7.1,22.3-21.6c0-12.1-9.8-21.5-22.6-21.5
	c-6.5,0-11.2,2.1-15.2,5.7c-4.8,4.4-5.7,11.1-5.7,20.1v43.5c0,6.6,0.4,8.4,0.4,12.4c0,5.5-3.6,8.1-7.5,8.1s-7.5-2.6-7.5-8.1
	c0-3.6,0.4-5.1,0.4-12.4v-43.5c0-12.4,2.4-23.4,10.9-30.8c6.4-5.6,14.1-8.9,24.3-8.9c21.1,0,36.9,15.1,36.9,35.2
	c0,12.7-5.6,23-14.3,28.6c7.4,3.7,15.9,13.1,15.9,29c0,21.3-17.1,35.3-36.4,35.3c-9.5,0-17.5-3-22.6-6.9c-1.9-1.5-3.7-4.2-3.7-6.8
	c0-3.9,2.7-6.7,6.5-6.7c1.8,0,3.4,0.7,4.9,1.8C-43.9,323.6-39.5,325.9-32.4,325.9"/>
<path d="M167.9,283v-1.6c0-16.4-5-22.5-14.7-22.5c-9.5,0-16.4,4.3-17.1,24.1H167.9 M154.5,315.2c5.6,0,10.5-1.6,16.6-4.5l1.6,5.5
	c-3.9,2.1-11.2,4.9-18.7,4.9c-16.6,0-25.3-11.2-25.3-34.3c0-24.1,10.2-33.9,24.6-33.9c14.8,0,22.1,11.7,22.1,29.7v6.2h-39.1
	C136.3,308.6,142.3,315.2,154.5,315.2"/>
</svg>
