<?xml version="1.0" encoding="utf-8"?>
<!-- Generator: Adobe Illustrator 19.2.1, SVG Export Plug-In . SVG Version: 6.00 Build 0)  -->
<svg version="1.1" id="layer" xmlns="http://www.w3.org/2000/svg" xmlns:xlink="http://www.w3.org/1999/xlink" x="0px" y="0px"
	 viewBox="0 0 652 652" style="enable-background:new 0 0 652 652;" xml:space="preserve">
<style type="text/css">
	.st0{fill:#005F50;}
	.st1{fill:#5FC1C7;}
	.st2{fill:#0086CD;}
	.st3{fill:#84C24C;}
	.st4{fill:#19AA9B;}
	.st5{fill:#6290C6;}
	.st6{fill:#F9BA29;}
	.st7{fill:#E72339;}
	.st8{fill:#D42E8B;}
	.st9{fill:#840062;}
</style>
<path class="st0" d="M692.8,356.8c2.2,0,3.9-1.7,3.9-3.9c0-2.2-1.7-3.9-3.9-3.9c-1.7,0-3.9,1.7-3.9,3.9
	C688.9,355.1,691.1,356.8,692.8,356.8z M448.4,359.6h-3.9c-1.1,0-1.7,0.6-1.1,1.7l15.1,50.3c0,1.1,1.1,1.7,2.2,1.7h4.5
	c1.1,0,1.7-0.6,2.2-1.7l14.5-50.3c0-1.1-0.6-1.7-1.1-1.7h-3.4c-1.1,0-1.7,0.6-1.7,1.7l-10.6,38.6c-0.6,2.2-1.1,6.2-1.7,8.9
	c-0.6-2.8-1.1-6.7-1.7-8.9l-10.6-38.6C450.1,360.2,449.5,359.6,448.4,359.6L448.4,359.6z M678.8,356.8c2.2,0,3.9-1.7,3.9-3.9
	c0-2.2-1.7-3.9-3.9-3.9c-1.7,0-3.9,1.7-3.9,3.9C674.9,355.1,677.1,356.8,678.8,356.8z M667.1,363.5v-2.8c0-1.1-0.6-1.7-1.7-1.7
	h-30.8c-1.1,0-1.7,0.6-1.7,1.7v2.8c0,1.1,0.6,1.7,1.7,1.7h12.3V411c0,1.1,0.6,1.7,1.7,1.7h3.4c1.1,0,1.7-0.6,1.7-1.7v-45.9H666
	C666.5,365.2,667.1,364.6,667.1,363.5L667.1,363.5z M516.1,359.6h-24c-1.1,0-1.7,0.6-1.7,1.7v50.3c0,1.1,0.6,1.7,1.7,1.7h24
	c1.1,0,1.7-0.6,1.7-1.7v-2.8c0-1.1-0.6-1.7-1.7-1.7h-19.6v-19h17.9c1.1,0,1.7-0.6,1.7-1.7v-2.2c0-1.1-0.6-1.7-1.7-1.7h-17.9v-16.2
	h19.6c1.1,0,1.7-0.6,1.7-1.7v-2.8C517.8,360.2,517.2,359.6,516.1,359.6z M169.9,398.2c0-8.4-3.9-11.7-10.1-14.5l-4.5-2.2
	c-4.5-1.7-8.4-3.9-8.4-8.4c0-5,2.8-7.8,9.5-7.8c3.4,0,5.6,0.6,8.4,1.7c0.6,0,1.7-0.6,1.7-1.1l0.6-2.8c0-1.1,0-1.7-1.1-2.2
	c-2.2-0.6-6.7-1.7-9.5-1.7c-10.6,0-16.2,6.2-16.2,14c0,8.9,6.2,11.7,11.7,14.5l3.9,1.7c4.5,1.7,6.7,3.9,6.7,8.9
	c0,5.6-3.4,8.9-9.5,8.9c-3.9,0-7.8-1.1-10.6-2.2c-1.1-0.6-1.7,0-2.2,1.1l-0.6,3.4c0,1.1,0,1.7,1.1,2.2c2.8,1.1,7.8,2.2,12.3,2.2
	C164.8,413.3,169.9,406,169.9,398.2L169.9,398.2z M563.1,411c0.6,1.1,0,1.7-1.1,1.7h-5c-0.6,0-1.1,0-1.7-1.1
	c-2.2-6.7-3.9-12.9-6.2-16.8c-1.7-3.4-4.5-6.7-10.1-6.7h-4.5V411c0,1.1-0.6,1.7-1.7,1.7h-2.8c-1.1,0-1.7-0.6-1.7-1.7v-50.3
	c0-1.1,0.6-1.7,1.7-1.7h13.4c12.9,0,15.7,7.8,15.7,12.9c0,7.8-5.6,12.9-12.9,13.4c5,0.6,7.8,5,9.5,8.9
	C557.5,395.9,559.7,402.1,563.1,411L563.1,411z M542.9,382.5c6.2,0,10.1-3.4,10.1-9.5c0-4.5-3.4-8.4-9.5-8.4h-8.4V382h7.8
	L542.9,382.5z M360.6,397.1v-35.8c0-1.1-0.6-1.7-1.7-1.7h-2.8c-1.1,0-1.7,0.6-1.7,1.7v35.2c0,9.5-4.5,11.2-10.6,11.2
	c-7.8,0-10.1-4.5-10.1-12.3v-34.7c0-1.1-0.6-1.7-1.7-1.7h-2.8c-1.1,0-1.7,0.6-1.7,1.7v35.8c0,10.1,4.5,16.2,16.2,16.2
	C355,413.3,360.6,407.7,360.6,397.1z M407.6,359.6h-2.8c-1.1,0-1.7,0.6-1.7,1.7v35.8c0,3.9,0.6,8.4,1.1,11.7
	c-1.1-2.8-1.7-6.2-3.4-10.1l-16.8-38c-0.6-0.6-1.1-1.1-1.7-1.1h-6.2c-1.1,0-1.7,0.6-1.7,1.7v50.3c0,0.6,0.6,1.7,1.7,1.7h2.8
	c1.1,0,1.7-0.6,1.7-1.7v-36.4c0-2.8-0.6-8.4-1.1-11.7c1.1,3.4,2.2,7.3,3.4,10.6l16.8,38c0.6,0.6,1.1,1.1,1.7,1.1h5.6
	c1.1,0,1.7-0.6,1.7-1.7v-50.3C409.3,360.2,408.1,359.6,407.6,359.6z M738.7,359.6h-30.8c-1.1,0-1.7,0.6-1.7,1.7v2.8
	c0,1.1,0.6,1.7,1.7,1.7h12.3v45.9c0,1.1,0.6,1.7,1.7,1.7h3.4c1.1,0,1.7-0.6,1.7-1.7v-45.9h12.3c1.1,0,1.7-0.6,1.7-1.7v-2.8
	C740.3,360.2,739.8,359.6,738.7,359.6L738.7,359.6z M591.6,383.6l-4.5-1.7c-4.5-1.7-8.4-3.9-8.4-8.4c0-5,2.8-7.8,9.5-7.8
	c3.4,0,5.6,0.6,8.4,1.7c0.6,0,1.7-0.6,1.7-1.1l0.6-2.8c0-1.1,0-1.7-1.1-2.2c-2.2-0.6-6.7-1.7-9.5-1.7c-10.6,0-16.2,6.2-16.2,14
	c0,8.9,6.2,11.7,11.7,14.5l3.9,1.7c4.5,1.7,6.7,3.9,6.7,8.9c0,5.6-3.4,8.9-9.5,8.9c-3.9,0-7.8-1.1-10.6-2.2c-1.1-0.6-1.7,0-2.2,1.1
	l-0.6,3.4c0,1.1,0,1.7,1.1,2.2c2.8,1.1,7.8,2.2,12.3,2.2c11.7,0,16.8-7.3,16.8-15.1C601.6,389.2,597.7,385.9,591.6,383.6
	L591.6,383.6z M705.7,411c0.6,1.1,0,1.7-1.1,1.7h-3.9c-1.1,0-1.7-0.6-2.2-1.7l-3.9-13.4h-17.9l-3.4,13.4c0,1.1-1.1,1.7-1.7,1.7h-3.9
	c-1.1,0-1.7-0.6-1.1-1.7l14.5-50.3c0.6-1.1,1.1-1.7,2.2-1.7h5c1.1,0,1.7,0.6,2.2,1.7L705.7,411z M693.4,392.6l-6.2-22.9
	c-0.6-2.2-1.1-4.5-1.1-6.7c0,2.2-0.6,4.5-1.1,6.7l-6.2,22.9H693.4z M624.6,359.6H610c-1.1,0-1.7,0.6-1.7,1.7v1.7
	c0,1.1,0.6,1.7,1.7,1.7h3.9v43.1H610c-1.1,0-1.7,0.6-1.7,1.7v1.7c0,1.1,0.6,1.7,1.7,1.7h14.5c1.1,0,1.7-0.6,1.7-1.7v-1.7
	c0-1.1-0.6-1.7-1.7-1.7h-3.9v-43.1h3.9c1.1,0,1.7-0.6,1.7-1.7v-1.7C626.3,360.2,625.1,359.6,624.6,359.6z M54.1,359.6h-2.8
	c-1.1,0-1.7,0.6-1.7,1.7V382H29.5v-20.7c0-1.1-0.6-1.7-1.7-1.7H25c-1.1,0-1.7,0.6-1.7,1.7v50.3c0,1.1,0.6,1.7,1.7,1.7h2.8
	c1.1,0,1.7-0.6,1.7-1.7v-24h19.6v24c0,1.1,0.6,1.7,1.7,1.7h2.8c1.1,0,1.7-0.6,1.7-1.7v-50.3C55.8,360.2,54.7,359.6,54.1,359.6z
	 M248.2,412.7h2.8c1.1,0,1.7-0.6,1.7-1.7v-50.3c0-1.1-0.6-1.7-1.7-1.7h-2.8c-1.1,0-1.7,0.6-1.7,1.7v20.7h-20.1v-20.7
	c0-1.1-0.6-1.7-1.7-1.7h-2.8c-1.1,0-1.7,0.6-1.7,1.7V411c0,1.1,0.6,1.7,1.7,1.7h2.8c1.1,0,1.7-0.6,1.7-1.7v-24h20.1v24
	C246.5,412.2,247.6,412.7,248.2,412.7z M-64.5,359.6h-30.8c-1.1,0-1.7,0.6-1.7,1.7v2.8c0,1.1,0.6,1.7,1.7,1.7h12.3v45.9
	c0,1.1,0.6,1.7,1.7,1.7h3.4c1.1,0,1.7-0.6,1.7-1.7v-45.9h12.3c1.1,0,1.7-0.6,1.7-1.7v-2.8C-62.8,360.2-63.9,359.6-64.5,359.6z
	 M199,413.3c5,0,7.8-1.1,10.1-2.2c0.6-0.6,1.1-1.1,0.6-1.7l-1.7-2.8c-0.6-0.6-1.1-1.1-2.2-0.6c-1.1,0.6-4.5,1.7-6.7,1.7
	c-7.8,0-13.4-6.2-13.4-21.3c0-14.5,5-20.7,14-20.7c2.2,0,4.5,0.6,6.2,1.7c1.1,0.6,1.7,0,2.2-0.6l1.1-2.2c0.6-1.1,0-1.7-0.6-2.2
	c-2.8-1.7-6.2-2.2-8.9-2.2c-12.3,0-20.7,10.1-20.7,26.8C178.8,403.2,186.1,413.3,199,413.3z M292.9,365.2c1.1,0,1.7-0.6,1.7-1.7
	v-2.8c0-1.1-0.6-1.7-1.7-1.7h-24c-1.1,0-1.7,0.6-1.7,1.7V411c0,1.1,0.6,1.7,1.7,1.7h24c1.1,0,1.7-0.6,1.7-1.7v-2.8
	c0-1.1-0.6-1.7-1.7-1.7h-19.6v-19h17.9c1.1,0,1.7-0.6,1.7-1.7v-2.2c0-1.1-0.6-1.7-1.7-1.7h-17.9v-16.2h19.6V365.2z M434.4,364.6
	c1.1,0,1.7-0.6,1.7-1.7v-1.7c0-1.1-0.6-1.7-1.7-1.7h-14.5c-1.1,0-1.7,0.6-1.7,1.7v1.7c0,1.1,0.6,1.7,1.7,1.7h3.9v43.1h-3.9
	c-1.1,0-1.7,0.6-1.7,1.7v1.7c0,1.1,0.6,1.7,1.7,1.7h14.5c1.1,0,1.7-0.6,1.7-1.7v-1.7c0-1.1-0.6-1.7-1.7-1.7h-3.9v-43.1H434.4z
	 M129.6,359.6h-14.5c-1.1,0-1.7,0.6-1.7,1.7v1.7c0,1.1,0.6,1.7,1.7,1.7h3.9v43.1h-3.9c-1.1,0-1.7,0.6-1.7,1.7v1.7
	c0,1.1,0.6,1.7,1.7,1.7h14.5c1.1,0,1.7-0.6,1.7-1.7v-1.7c0-1.1-0.6-1.7-1.7-1.7h-3.9v-43.1h3.9c1.1,0,1.7-0.6,1.7-1.7v-1.7
	C131.3,360.2,130.7,359.6,129.6,359.6z M102.2,359.6h-2.8c-1.1,0-1.7,0.6-1.7,1.7v35.8c0,3.9,0.6,8.4,1.1,11.7
	c-1.1-2.8-1.7-6.2-3.4-10.1l-16.8-38c-0.6-0.6-1.1-1.1-1.7-1.1h-6.2c-1.1,0-1.7,0.6-1.7,1.7v50.3c0,0.6,0.6,1.7,1.7,1.7h2.8
	c1.1,0,1.7-0.6,1.7-1.7v-36.4c0-2.8-0.6-8.4-1.1-11.7c1.1,3.4,2.2,7.3,3.4,10.6l16.8,38c0.6,0.6,1.1,1.1,1.7,1.1h5.6
	c1.1,0,1.7-0.6,1.7-1.7v-50.3C103.9,360.2,103.3,359.6,102.2,359.6z M10.5,406c-0.6-0.6-1.1-1.1-2.2-0.6s-4.5,1.7-6.7,1.7
	c-7.8,0-13.4-6.2-13.4-21.3c0-14.5,5-20.7,14-20.7c2.2,0,4.5,0.6,6.2,1.7c1.1,0.6,1.7,0,2.2-0.6l1.1-2.2c0.6-1.1,0-1.7-0.6-2.2
	c-2.8-1.7-6.2-2.2-8.9-2.2c-12.3,0-20.7,10.1-20.7,26.8c0,17.3,7.3,27.4,20.1,27.4c5,0,7.8-1.1,10.1-2.2c0.6-0.6,1.1-1.1,0.6-1.7
	L10.5,406z M-28.7,359.6h-24.6c-1.1,0-1.7,0.6-1.7,1.7v50.3c0,1.1,0.6,1.7,1.7,1.7h24c1.1,0,1.7-0.6,1.7-1.7v-2.8
	c0-1.1-0.6-1.7-1.7-1.7h-19v-19h17.9c1.1,0,1.7-0.6,1.7-1.7v-2.2c0-1.1-0.6-1.7-1.7-1.7h-17.9v-16.2h19.6c1.1,0,1.7-0.6,1.7-1.7
	v-2.8C-27,360.2-28.1,359.6-28.7,359.6z M188.9,563.2c-0.6-0.6-1.1-1.1-2.2-0.6s-4.5,1.7-6.7,1.7c-7.8,0-13.4-6.2-13.4-21.3
	c0-14.5,5-20.7,14-20.7c2.2,0,4.5,0.6,6.2,1.7c1.1,0.6,1.7,0,2.2-0.6l1.1-2.2c0.6-1.1,0-1.7-0.6-2.2c-2.8-1.7-6.2-2.2-8.9-2.2
	c-12.3,0-20.7,10.1-20.7,26.8c0,17.3,7.3,27.4,20.1,27.4c5,0,7.8-1.1,10.1-2.2c0.6-0.6,1.1-1.1,0.6-1.7L188.9,563.2z M273.9,516.2
	h-24c-1.1,0-1.7,0.6-1.7,1.7v50.3c0,1.1,0.6,1.7,1.7,1.7h24c1.1,0,1.7-0.6,1.7-1.7v-2.8c0-1.1-0.6-1.7-1.7-1.7h-19.6v-19h17.9
	c1.1,0,1.7-0.6,1.7-1.7v-2.2c0-1.1-0.6-1.7-1.7-1.7h-17.9v-16.2h19.6c1.1,0,1.7-0.6,1.7-1.7v-2.8
	C275.6,516.8,274.5,516.2,273.9,516.2z M232.5,516.2h-2.8c-1.1,0-1.7,0.6-1.7,1.7v20.7h-20.1v-20.7c0-1.1-0.6-1.7-1.7-1.7h-2.8
	c-1.1,0-1.7,0.6-1.7,1.7v50.3c0,1.1,0.6,1.7,1.7,1.7h2.2c1.1,0,1.7-0.6,1.7-1.7v-24h20.1v24c0,1.1,0.6,1.7,1.7,1.7h2.8
	c1.1,0,1.7-0.6,1.7-1.7v-50.3C234.2,516.8,233.1,516.2,232.5,516.2z M405.9,516.2h-14.5c-1.1,0-1.7,0.6-1.7,1.7v1.7
	c0,1.1,0.6,1.7,1.7,1.7h3.9v43.1h-3.9c-1.1,0-1.7,0.6-1.7,1.7v1.7c0,1.1,0.6,1.7,1.7,1.7h14.5c1.1,0,1.7-0.6,1.7-1.7V566
	c0-1.1-0.6-1.7-1.7-1.7h-4.5v-43.1h3.9c1.1,0,1.7-0.6,1.7-1.7v-1.7C407,517.3,406.5,516.2,405.9,516.2z M446.7,516.2H416
	c-1.1,0-1.7,0.6-1.7,1.7v2.8c0,1.1,0.6,1.7,1.7,1.7h12.3v45.9c0,1.1,0.6,1.7,1.7,1.7h3.4c1.1,0,1.7-0.6,1.7-1.7v-45.9h12.3
	c1.1,0,1.7-0.6,1.7-1.7v-2.8C448.4,516.8,447.8,516.2,446.7,516.2L446.7,516.2z M327,516.2h-6.2c-0.6,0-1.7,0.6-1.7,1.1l-8.9,33
	c-0.6,2.8-1.1,6.2-1.1,8.9c-0.6-2.8-0.6-6.7-1.1-8.9l-8.9-33.6c0-0.6-0.6-1.1-1.7-1.1h-6.2c-1.1,0-1.7,0.6-1.7,1.7l-3.9,50.3
	c0,1.1,0.6,1.7,1.1,1.7h3.9c0.6,0,1.1-0.6,1.1-1.7l2.2-36.9v-10.6c0.6,2.8,0.6,7.3,1.7,10.6l8.4,31.3c0.6,1.1,0.6,1.7,1.7,1.7h4.5
	c1.1,0,1.1-0.6,1.7-1.7l8.4-31.3c1.1-3.4,1.1-8.4,1.7-10.6v10.6l2.2,36.9c0,0.6,0.6,1.1,1.7,1.1h4.5c1.1,0,1.1-0.6,1.1-1.1
	l-2.8-49.8C328.7,516.8,327.6,516.2,327,516.2L327,516.2z M378.5,516.2h-2.8c-1.1,0-1.7,0.6-1.7,1.7v35.8c0,3.9,0.6,8.4,1.1,11.7
	c-1.1-2.8-1.7-6.2-3.4-10.1l-16.8-38c-0.6-0.6-1.1-1.1-1.7-1.1h-6.2c-1.1,0-1.7,0.6-1.7,1.7v50.3c0,0.6,0.6,1.7,1.7,1.7h2.8
	c1.1,0,1.7-0.6,1.7-1.7v-36.4c0-2.8-0.6-8.4-1.1-11.7c1.1,3.4,2.2,7.3,3.4,10.6l16.8,38c0.6,0.6,1.1,1.1,1.7,1.1h5.6
	c1.1,0,1.7-0.6,1.7-1.7v-50.3C380.2,516.8,379.6,516.2,378.5,516.2z M485.3,563.7h-20.7c-1.7,0-3.4,0.6-3.9,0.6
	c1.1-0.6,2.2-1.7,2.8-3.4l21.8-37.5c0.6-0.6,1.1-1.7,1.1-2.8v-2.8c0-1.1-0.6-1.7-1.7-1.7h-27.4c-1.1,0-1.7,0.6-1.7,1.7v2.8
	c0,1.1,0.6,1.7,1.7,1.7h18.5c1.7,0,3.4,0,4.5-0.6c-1.1,0.6-2.2,2.2-2.8,3.4l-21.8,37.5c-0.6,0.6-0.6,1.1-0.6,2.2v3.4
	c0,1.1,0.6,1.7,1.7,1.7h28.5c1.1,0,1.7-0.6,1.7-1.7v-2.8C487,564.3,485.9,563.7,485.3,563.7z"/>
<path class="st1" d="M-80.1,482.1h-9.5c-0.6,0-1.1-0.6-1.1-1.1v-1.1c0-0.6,0.6-1.1,1.1-1.1h2.8v-28.5h-2.8c-0.6,0-1.1-0.6-1.1-1.1
	V448c0-0.6,0.6-1.1,1.1-1.1h9.5c0.6,0,1.1,0.6,1.1,1.1v1.1c0,0.6-0.6,1.1-1.1,1.1h-2.8v28.5h2.8c0.6,0,1.1,0.6,1.1,1.1v1.1
	C-79,481.5-79.6,482.1-80.1,482.1z M-49.4,482.1h-3.9c-0.6,0-1.1-0.6-1.1-0.6l-11.2-24.6c-1.1-2.2-1.7-4.5-2.2-6.7
	c0,2.2,0.6,5.6,0.6,7.3v24c0,0.6-0.6,1.1-1.1,1.1h-1.7c-0.6,0-1.1-0.6-1.1-1.1v-33c0-0.6,0.6-1.1,1.1-1.1h3.9c0.6,0,1.1,0,1.1,0.6
	l10.6,24.6c1.1,2.2,1.7,4.5,2.2,6.7c0-2.2-0.6-5-0.6-7.3v-24c0-0.6,0.6-1.1,1.1-1.1h1.7c0.6,0,1.1,0.6,1.1,1.1v33
	C-48.2,482.1-48.8,482.1-49.4,482.1z M-16.9,482.1h-7.3c-0.6,0-1.1-0.6-1.1-1.1v-33c0-0.6,0.6-1.1,1.1-1.1h7.3
	c9.5,0,13.4,5.6,13.4,17.3C-3.5,476.5-6.9,482.1-16.9,482.1z M-10.8,453.6c-1.7-1.7-3.9-2.2-6.2-2.2h-3.9v27.4h3.9
	c5,0,8.9-1.7,8.9-13.4C-8,458.6-9.1,455.2-10.8,453.6z M22.8,482.1H6.6c-0.6,0-1.1-0.6-1.1-1.1v-33c0-0.6,0.6-1.1,1.1-1.1h15.7
	c0.6,0,1.1,0.6,1.1,1.1v1.7c0,0.6-0.6,1.1-1.1,1.1H9.9v10.6h11.2c0.6,0,1.1,0.6,1.1,1.1v1.7c0,0.6-0.6,1.1-1.1,1.1H9.9v12.9h13.4
	c0.6,0,1.1,0.6,1.1,1.1v1.7C23.9,482.1,23.3,482.1,22.8,482.1z M55.2,482.1h-3.4c-0.6,0-0.6,0-1.1-0.6c-1.7-4.5-2.2-8.4-3.9-11.2
	c-1.1-2.2-2.8-4.5-6.7-4.5h-2.8V481c0,0.6-0.6,1.1-1.1,1.1H34c-0.6,0-1.1-0.6-1.1-1.1v-33c0-0.6,0.6-1.1,1.1-1.1h8.9
	c8.4,0,10.6,5,10.6,8.4c0,3.9-2.2,7.8-7.8,8.9h-0.6c3.4,0.6,5,3.4,6.2,5.6c0.6,1.1,2.2,5,3.9,10.6C55.8,481.5,55.8,482.1,55.2,482.1
	z M42.9,450.8h-5.6v11.7h5c3.9,0,6.7-2.2,6.7-6.2C49.1,453.6,47.4,450.8,42.9,450.8z M95.5,482.1h-3.4c-0.6,0-1.1,0-1.1-0.6
	l-11.2-18.5v18.5c0,0.6-0.6,1.1-1.1,1.1h-2.2c-0.6,0-1.1-0.6-1.1-1.1v-33c0-0.6,0.6-1.1,1.1-1.1h2.2c0.6,0,1.1,0.6,1.1,1.1v14
	l10.6-15.1c0-0.6,0.6-0.6,1.1-0.6h3.4c1.1,0,0.6,0.6,0.6,1.1l-11.7,14.5L96.1,481C96.6,482.1,96.1,482.1,95.5,482.1z M113.4,482.6
	c-7.8,0-10.6-3.9-10.6-10.6v-23.5c0-0.6,0.6-1.1,1.1-1.1h2.2c0.6,0,1.1,0.6,1.1,1.1v22.4c0,5,1.7,8.4,6.7,8.4c3.9,0,6.7-1.1,6.7-7.3
	v-22.9c0-0.6,0.6-1.1,1.1-1.1h2.2c0.6,0,1.1,0.6,1.1,1.1v23.5C124.6,478.7,120.7,482.6,113.4,482.6L113.4,482.6z M151.4,482.1h-14.5
	c-0.6,0-1.1-0.6-1.1-1.1v-33c0-0.6,0.6-1.1,1.1-1.1h1.7c0.6,0,1.1,0.6,1.1,1.1v30.2h11.7c0.6,0,1.1,0.6,1.1,1.1v1.7
	C152.5,482.1,152,482.1,151.4,482.1z M176,450.8h-7.8V481c0,0.6-0.6,1.1-1.1,1.1h-2.2c-0.6,0-1.1-0.6-1.1-1.1v-30.2h-7.8
	c-0.6,0-1.1-0.6-1.1-1.1V448c0-0.6,0.6-1.1,1.1-1.1H176c0.6,0,1.1,0.6,1.1,1.1v1.7C177.1,450.8,176.6,450.8,176,450.8L176,450.8z
	 M193.9,482.6c-7.8,0-10.6-3.9-10.6-10.6v-23.5c0-0.6,0.6-1.1,1.1-1.1h2.2c0.6,0,1.1,0.6,1.1,1.1v22.4c0,5,1.7,8.4,6.7,8.4
	c3.9,0,6.7-1.1,6.7-7.3v-22.9c0-0.6,0.6-1.1,1.1-1.1h2.2c0.6,0,1.1,0.6,1.1,1.1v23.5C205.1,478.7,201.2,482.6,193.9,482.6
	L193.9,482.6z M237.6,482.1h-3.4c-0.6,0-0.6,0-1.1-0.6c-1.7-4.5-2.2-8.4-3.9-11.2c-1.1-2.2-2.8-4.5-6.7-4.5h-2.8V481
	c0,0.6-0.6,1.1-1.1,1.1h-1.7c-0.6,0-1.1-0.6-1.1-1.1v-33c0-0.6,0.6-1.1,1.1-1.1h8.9c8.4,0,10.6,5,10.6,8.4c0,3.9-2.2,7.8-7.8,8.9
	H228c3.4,0.6,5,3.4,6.2,5.6c0.6,1.1,2.2,5,3.9,10.6C238.7,481.5,238.7,482.1,237.6,482.1z M225.8,450.8h-5.6v11.7h5
	c3.9,0,6.7-2.2,6.7-6.2C232,453.6,229.7,450.8,225.8,450.8z M267.2,482.1H265c-0.6,0-1.1-0.6-1.1-1.1v-15.7h-13.4V481
	c0,0.6-0.6,1.1-1.1,1.1h-2.2c-0.6,0-1.1-0.6-1.1-1.1v-33c0-0.6,0.6-1.1,1.1-1.1h2.2c0.6,0,1.1,0.6,1.1,1.1v13.4h13.4V448
	c0-0.6,0.6-1.1,1.1-1.1h2.2c0.6,0,1.1,0.6,1.1,1.1v33C268.3,482.1,267.8,482.1,267.2,482.1z M300.8,482.1H298
	c-0.6,0-1.1-0.6-1.7-1.1L294,472h-11.7l-2.2,8.9c0,0.6-0.6,1.1-1.1,1.1h-2.8c-0.6,0-1.1-0.6-0.6-1.1l9.5-33c0-0.6,0.6-1.1,1.7-1.1
	h2.8c0.6,0,1.1,0.6,1.7,1.1l10.1,33C301.3,481.5,301.3,482.1,300.8,482.1z M289,453.6c-0.6-1.1-0.6-2.8-0.6-4.5
	c0,1.7-0.6,2.8-0.6,4.5l-3.9,15.1H294L289,453.6z M319.2,482.6c-7.8,0-10.6-3.9-10.6-10.6v-23.5c0-0.6,0.6-1.1,1.1-1.1h2.2
	c0.6,0,1.1,0.6,1.1,1.1v22.4c0,5,1.7,8.4,6.7,8.4c3.9,0,6.7-1.1,6.7-7.3v-22.9c0-0.6,0.6-1.1,1.1-1.1h2.2c0.6,0,1.1,0.6,1.1,1.1
	v23.5C330.4,478.7,326.5,482.6,319.2,482.6L319.2,482.6z M349.4,467.5h-3.9V481c0,0.6-0.6,1.1-1.1,1.1h-2.2c-0.6,0-1.1-0.6-1.1-1.1
	v-33c0-0.6,0.6-1.1,1.1-1.1h7.3c7.3,0,11.2,3.9,11.2,10.1S356.7,467.5,349.4,467.5z M350,450.8h-4.5v12.9h4.5c3.9,0,6.2-2.8,6.2-6.7
	C356.1,453.6,353.9,450.8,350,450.8z M385.8,450.8h-7.8V481c0,0.6-0.6,1.1-1.1,1.1h-2.2c-0.6,0-1.1-0.6-1.1-1.1v-30.2h-7.8
	c-0.6,0-1.1-0.6-1.1-1.1V448c0-0.6,0.6-1.1,1.1-1.1h20.1c0.6,0,1.1,0.6,1.1,1.1v1.7C386.9,450.8,386.3,450.8,385.8,450.8z
	 M399.2,482.6c-2.8,0-6.2-0.6-8.4-1.7c-0.6,0-1.1-0.6-0.6-1.1l0.6-2.2c0-0.6,0.6-1.1,1.1-0.6c1.7,0.6,4.5,1.7,7.3,1.7
	c3.9,0,6.7-2.2,6.7-5.6s-2.2-4.5-5-6.2l-2.2-1.1c-3.9-1.7-7.8-3.4-7.8-9.5c0-5.6,3.9-9.5,10.6-9.5c2.2,0,5,0.6,6.2,1.1
	c0.6,0,0.6,0.6,0.6,1.1v2.2c0,0.6-0.6,1.1-1.1,0.6c-1.7-0.6-3.4-1.1-5.6-1.1c-4.5,0-6.2,1.7-6.2,5c0,3.4,2.2,4.5,5.6,5.6l2.8,1.1
	c3.9,1.7,7.3,3.9,7.3,9.5C410.9,477.6,407,482.6,399.2,482.6L399.2,482.6z M436.7,450.8h-7.8V481c0,0.6-0.6,1.1-1.1,1.1h-2.2
	c-0.6,0-1.1-0.6-1.1-1.1v-30.2h-7.8c-0.6,0-1.1-0.6-1.1-1.1V448c0-0.6,0.6-1.1,1.1-1.1h20.1c0.6,0,1.1,0.6,1.1,1.1v1.7
	C437.2,450.8,437.2,450.8,436.7,450.8z M465.2,482.1h-2.8c-0.6,0-1.1-0.6-1.7-1.1l-2.2-8.9h-11.7l-2.2,8.9c0,0.6-0.6,1.1-1.1,1.1
	h-2.8c-0.6,0-1.1-0.6-0.6-1.1l9.5-33c0-0.6,0.6-1.1,1.7-1.1h3.4c0.6,0,1.1,0.6,1.7,1.1l10.1,33C465.7,481.5,465.7,482.1,465.2,482.1
	z M452.9,453.6c-0.6-1.1-0.6-2.8-0.6-4.5c0,1.7-0.6,2.8-0.6,4.5l-3.9,15.1h9.5L452.9,453.6z M481.4,482.1h-7.3
	c-0.6,0-1.1-0.6-1.1-1.1v-33c0-0.6,0.6-1.1,1.1-1.1h7.3c9.5,0,13.4,5.6,13.4,17.3C494.8,476.5,491.5,482.1,481.4,482.1z
	 M487.6,453.6c-1.7-1.7-3.9-2.2-6.2-2.2h-3.9v27.4h3.9c5,0,8.9-1.7,8.9-13.4C490.3,458.6,489.2,455.2,487.6,453.6z M521.1,450.8
	h-7.8V481c0,0.6-0.6,1.1-1.1,1.1h-2.2c-0.6,0-1.1-0.6-1.1-1.1v-30.2H501c-0.6,0-1.1-0.6-1.1-1.1V448c0-0.6,0.6-1.1,1.1-1.1h20.1
	c0.6,0,1.1,0.6,1.1,1.1v1.7C522.2,450.8,521.7,450.8,521.1,450.8z M557.5,482.1h-16.2c-0.6,0-1.1-0.6-1.1-1.1v-33
	c0-0.6,0.6-1.1,1.1-1.1h15.7c0.6,0,1.1,0.6,1.1,1.1v1.7c0,0.6-0.6,1.1-1.1,1.1H544v10.6h11.7c0.6,0,1.1,0.6,1.1,1.1v1.7
	c0,0.6-0.6,1.1-1.1,1.1H544v12.9h13.4c0.6,0,1.1,0.6,1.1,1.1v1.7C558.6,482.1,558,482.1,557.5,482.1L557.5,482.1z M578.2,482.6
	c-7.8,0-10.6-3.9-10.6-10.6v-23.5c0-0.6,0.6-1.1,1.1-1.1h2.2c0.6,0,1.1,0.6,1.1,1.1v22.4c0,5,1.7,8.4,6.7,8.4c3.9,0,6.7-1.1,6.7-7.3
	v-22.9c0-0.6,0.6-1.1,1.1-1.1h2.2c0.6,0,1.1,0.6,1.1,1.1v23.5C589.3,478.7,585.4,482.6,578.2,482.6L578.2,482.6z M621.8,482.1h-3.4
	c-0.6,0-0.6,0-1.1-0.6c-1.7-4.5-2.2-8.4-3.9-11.2c-1.1-2.2-2.8-4.5-6.7-4.5h-2.8V481c0,0.6-0.6,1.1-1.1,1.1h-2.2
	c-0.6,0-1.1-0.6-1.1-1.1v-33c0-0.6,0.6-1.1,1.1-1.1h8.9c8.4,0,10.6,5,10.6,8.4c0,3.9-2.2,7.8-7.8,8.9h-0.6c3.4,0.6,5,3.4,6.2,5.6
	c0.6,1.1,2.2,5,3.9,10.6C622.9,481.5,622.9,482.1,621.8,482.1L621.8,482.1z M610,450.8h-5.6v11.7h5c3.9,0,6.7-2.2,6.7-6.2
	C616.2,453.6,613.9,450.8,610,450.8L610,450.8z M640.8,482.6c-7.8,0-11.7-5.6-11.7-17.9c0-12.3,3.9-17.9,11.7-17.9
	s11.7,5.6,11.7,17.9C652.5,477,648.1,482.6,640.8,482.6z M640.2,450.2c-6.7,0-7.3,7.3-7.3,14.5c0,10.1,2.2,14,7.3,14
	c5.6,0,7.3-5.6,7.3-14C648.1,456.9,646.4,450.2,640.2,450.2z M669.9,467.5H666V481c0,0.6-0.6,1.1-1.1,1.1h-2.2
	c-0.6,0-1.1-0.6-1.1-1.1v-33c0-0.6,0.6-1.1,1.1-1.1h7.3c7.3,0,11.2,3.9,11.2,10.1S677.1,467.5,669.9,467.5z M670.4,450.8H666v12.9
	h4.5c3.9,0,6.2-2.8,6.2-6.7C676.6,453.6,674.4,450.8,670.4,450.8z M710.7,482.1h-2.8c-0.6,0-1.1-0.6-1.7-1.1L704,472h-11.7L690,481
	c0,0.6-0.6,1.1-1.1,1.1h-2.8c-0.6,0-1.1-0.6-0.6-1.1l9.5-33c0-0.6,0.6-1.1,1.7-1.1h3.4c0.6,0,1.1,0.6,1.7,1.1l10.1,33
	C711.3,481.5,711.3,482.1,710.7,482.1z M698.4,453.6c-0.6-1.1-0.6-2.8-0.6-4.5c0,1.7-0.6,2.8-0.6,4.5l-3.9,15.1h10.1L698.4,453.6z
	 M724.7,482.6c-2.8,0-6.2-0.6-8.4-1.7c-0.6,0-1.1-0.6-0.6-1.1l0.6-2.2c0-0.6,0.6-1.1,1.1-0.6c1.7,0.6,4.5,1.7,7.3,1.7
	c3.9,0,6.7-2.2,6.7-5.6s-2.2-4.5-5-6.2l-2.2-1.1c-3.9-1.7-7.8-3.4-7.8-9.5c0-5.6,3.9-9.5,10.6-9.5c2.2,0,5,0.6,6.2,1.1
	c0.6,0,0.6,0.6,0.6,1.1l-0.6,1.7c0,0.6-0.6,1.1-1.1,0.6c-1.7-0.6-3.4-1.1-5.6-1.1c-4.5,0-6.2,1.7-6.2,5c0,3.4,2.2,4.5,5.6,5.6
	l2.8,1.1c3.9,1.7,7.3,3.9,7.3,9.5C736.4,477.6,732.5,482.6,724.7,482.6L724.7,482.6z"/>
<path class="st0" d="M426.8,93.6c-4.1,0-7.4-3.2-7.3-7.2c0-4,3.2-7.1,7.3-7.1c4.2,0,7.4,3.1,7.4,7.1C434.2,90.4,431,93.6,426.8,93.6
	 M419.4,225.8c0.1-4.9,0.1-9.8,0-14.7c0-3-2.3-5.2-5.2-5.2c-10.4-0.1-20.8-0.1-31.2,0c-3.1,0-5.3,2.3-5.4,5.3
	c-0.1,4.8-0.1,9.7,0,14.5c0.1,3.3,2.5,5.3,5.7,5.3c5,0,10,0,15,0c5.1,0,10.3,0,15.4,0C416.9,231.1,419.3,228.9,419.4,225.8
	 M377.6,267.7c0,3.3,2.4,5.6,5.7,5.6c10.1,0.1,20.1,0.1,30.2,0c3.5,0,5.8-2.5,5.8-5.9c0-4.5,0-9,0-13.5c0-3.6-2.2-5.9-5.8-5.9
	c-4.9,0-9.9,0-14.8,0c-5.2,0-10.3,0-15.4,0c-3.4,0-5.7,2.2-5.7,5.6C377.5,258.3,377.5,263,377.6,267.7 M416.9,293.3
	c2.1-0.4,2.6-1,2.4-3.4H224.7c-0.2,2.4,0.3,3.1,2.5,3.4c0.7,0.1,1.5,0.1,2.2,0.1c61.8,0,123.5,0,185.4,0
	C415.5,293.4,416.2,293.4,416.9,293.3 M224.6,254c0,4.4,0,8.7,0,13.1c0,3.8,2.4,6.3,6.2,6.3c9.9,0,19.8,0,29.6,0
	c3.6,0,6-2.3,6.1-5.9c0.1-4.6,0.1-9.1,0-13.7c0-3.4-2.4-5.7-5.9-5.7c-5,0-10,0-15,0c-5,0-10,0-15,0
	C226.9,248.1,224.6,250.4,224.6,254 M266.5,212c0-3.7-2.2-6.1-5.9-6.1c-10.1-0.1-20.2-0.1-30.2,0c-3.6,0-5.8,2.4-5.8,6
	c0,4.4,0,8.9,0,13.3c0,3.6,2.4,6,6,6c4.9,0,9.9,0,14.8,0c5,0,10,0,15,0c3.8,0,6-2.2,6.1-6C266.6,220.7,266.6,216.3,266.5,212
	 M260.2,189c4,0,6.3-2.2,6.3-6.3c0.1-4.3,0.1-8.6,0-12.9c0-3.8-2.3-6-6.1-6.1h-29.8c-3.7,0-6,2.3-6,5.9c0,4.4,0,8.7,0,13.1
	c0,3.8,2.3,6.1,6.2,6.2c4.9,0,9.9,0,14.8,0C250.5,189,255.4,189,260.2,189 M224.6,127.7c0,4.2,0,8.4,0,12.7c0,4.1,2.3,6.4,6.4,6.4
	c9.8,0.1,19.6,0.1,29.4,0c3.8,0,6.1-2.3,6.1-6.1c0.1-4.4,0.1-8.7,0-13.1c0-3.8-2.3-6-6.1-6c-4.9,0-9.9,0-14.8,0h-14.8
	C226.8,121.7,224.6,123.8,224.6,127.7 M363.1,253.9c0-3.9-2-5.8-5.9-5.8H322c-11.8,0-23.6,0-35.4,0c-3.6,0-5.5,1.8-5.6,5.3
	c-0.1,4.7,0,9.4,0,14.1c0.1,3.9,2.1,5.9,6.1,5.9c23.2,0,46.5,0,69.7,0c4.1,0,6.3-2.1,6.3-6.2C363.1,262.7,363.1,258.3,363.1,253.9
	 M356.8,231.1c4.3,0,6.3-2,6.3-6.3c0-4.1,0-8.2,0-12.3c0-4.9-1.7-6.6-6.7-6.6h-56.9c-4.5,0-8.9,0-13.4,0c-3.2,0.1-5.1,2-5.1,5.1
	c-0.1,4.8-0.1,9.7,0,14.5c0.1,3.6,2.1,5.6,5.8,5.6H356.8 M281,169.3c0,4.6,0,9.1,0,13.7c0,4.1,2,6,6,6h70c4,0,6.2-2.1,6.2-6.1
	c0-4.4,0-8.8,0-13.1c0-4.2-1.8-6-6.1-6h-70.3C282.9,163.8,281,165.6,281,169.3 M281,127.5c0,4.4,0,8.9,0,13.3c0,4.2,2,6.1,6.1,6.1
	c23.3,0,46.5,0,69.7,0c4.2,0,6.3-2,6.3-6.2c0-4.3,0-8.7,0-13.1c0-4.2-1.8-5.9-6-5.9h-70.3C282.8,121.7,281,123.4,281,127.5
	 M377.6,169.6c-0.1,4.4-0.1,8.9,0,13.3c0,4,2.3,6.1,6.2,6.1c4.9,0,9.8,0,14.6,0c5,0,10,0,15,0c3.5-0.1,5.9-2.3,6-5.8
	c0.1-4.6,0.1-9.3,0-13.9c-0.1-3.4-2.3-5.5-5.7-5.5c-10.1-0.1-20.1-0.1-30.2,0C379.9,163.8,377.6,166,377.6,169.6 M377.6,126.9
	c-0.1,4.8-0.1,9.7,0,14.5c0.1,3.1,2.3,5.4,5.4,5.4c10.2,0.1,20.4,0.1,30.6,0c3.4,0,5.7-2.5,5.7-5.8c0-4.6,0-9.1,0-13.7
	c0-3.5-2.2-5.7-5.8-5.7c-5,0-10,0-15,0c-5.1,0-10.3,0-15.4,0C380,121.7,377.6,123.8,377.6,126.9 M453.9,289.8h-19.9v11.7H210.1
	v-11.5h-19.9l0-16.5c0,0,10.1,0.1,14.2,0c3.9-0.1,5.7-2,5.7-5.8c0-4.7,0-9.5,0-14.3c0-3.2-2-5.2-5.2-5.2c-4.7,0-14.7,0-14.7,0v-17
	c0,0,15,0,15,0c3,0,4.8-2,4.9-4.9c0-5.1,0-10.2,0-15.3c0-2.8-1.8-4.8-4.7-4.9c0,0-15.2,0-15.2,0l0-17.1c0,0,15.4,0,15.4,0
	c2.8-0.1,4.4-2.1,4.5-4.8c0.1-2.5,0-5,0-7.5c0-2.6,0-5.2,0-7.7c-0.1-3-1.8-4.9-4.8-5l-15.1,0v-17c0,0,15,0,15,0
	c3.1-0.1,4.8-2,4.9-5.1c0-4.9,0-9.9,0-14.9c0-3.1-1.8-5.1-4.9-5.1h-15v-16.2H210v-6.9h223.8v6.8h20.1v16.3c0,0-14.7,0-14.7,0
	c-3.5,0.1-5.3,1.9-5.3,5.3c0,4.8,0,9.6,0,14.5c0,3.4,1.7,5.3,5.1,5.4c0,0,14.9,0.1,14.9,0.1v16.9c0,0-14.8,0-14.8,0
	c-3.1,0.1-5,1.9-5.1,4.9c-0.1,5.1-0.1,10.2,0,15.3c0,3,1.9,4.9,4.9,5c0,0,15.1,0,15.1,0v17c0,0-14.9,0-14.9,0
	c-3.3,0.1-5.1,1.9-5.1,5.1c-0.1,5-0.1,9.9,0,14.9c0,3.2,1.9,5.1,5.1,5.1l14.9,0v17c0,0-14.4,0-14.4,0c-3.6,0-5.5,1.8-5.5,5.3
	c-0.1,4.9-0.1,9.8,0,14.7c0,3.1,1.6,5,4.6,5.2c0,0,15.3,0,15.3,0V289.8z M370.2,93.6c4.3,0.1,7.4-3,7.5-7.1c0-4.1-3-7.2-7.1-7.3
	c-4.3-0.1-7.4,3-7.5,7.1C363.1,90.4,366.1,93.5,370.2,93.6 M217.5,93.6c4.1,0,7.2-3.1,7.2-7.2c0-4.1-3.1-7.2-7.3-7.2
	c-4.1,0-7.2,3.1-7.2,7.2C210.1,90.5,213.2,93.6,217.5,93.6 M273.8,93.6c4.2,0,7.4-3.2,7.3-7.3c-0.1-4-3.3-7.1-7.3-7.1
	c-4.1,0-7.2,3.1-7.3,7.1C266.5,90.4,269.7,93.6,273.8,93.6 M349.8,91.1c-4.1-8.2-10.3-14.2-18.7-18c-3.8-1.7-7.7-2.5-11.9-1.9
	c-8.6,1-15.2,5.6-20.5,12c-2.4,2.9-4.3,6.2-5.4,9.9h57.3C350.3,92.3,350.1,91.6,349.8,91.1"/>
<path class="st2" d="M608.6,219.1c-2.3-6-5.5-11.2-9.5-15.6c-4-4.4-8.8-7.9-14-10.6c-4.5-2.3-9.3-3.6-14.3-3.9l-1-0.1v16.8l0.7,0.2
	c7.7,1.8,13.5,5.4,17.2,10.7c3.9,5.6,5.9,12.8,5.9,21.4v1.7c0,9.7-2.9,17.8-8.4,24.1c-5.6,6.4-14.1,9.7-25.3,9.7h-89.3v16.3h97
	c5.9,0,11.6-1.2,17-3.6c5.4-2.4,10.1-5.7,14.1-10c4-4.3,7.3-9.5,9.7-15.6c2.4-6,3.6-12.9,3.6-20.3v-2.3
	C612,231.4,610.9,225.1,608.6,219.1"/>
<rect x="520.6" y="146.9" class="st3" width="86.2" height="16.6"/>
<path class="st4" d="M607.9,121.5v-16.2H470.6v51.6c0,6.5,1.2,12.8,3.5,18.8c2.3,6,5.5,11.3,9.5,15.6c3.2,3.5,7,6.5,11.2,9l0.2,0.1
	c0.9,0.5,1.8,1,2.7,1.5c4.5,2.3,9.3,3.6,14.3,3.9l1,0.1v-16.8l-0.7-0.2c-7-1.6-12.5-4.8-16.2-9.4l-0.3-0.3c-0.3-0.3-0.5-0.6-0.7-1
	c-3.9-5.6-5.9-12.8-5.9-21.4v-35.4H607.9z"/>
<rect x="470.7" y="231.1" class="st5" width="91" height="17"/>
<path class="st6" d="M171.7,175.7c-2.3,6-5.5,11.2-9.5,15.6c-4,4.4-8.8,7.9-14,10.6c-4.5,2.3-9.3,3.6-14.3,3.9l-1,0.1v-16.8l0.7-0.2
	c7.7-1.8,13.5-5.4,17.2-10.7c3.9-5.6,5.9-12.8,5.9-21.4v-1.7c0-9.7-2.9-17.8-8.4-24.1c-5.6-6.4-14.1-9.7-25.3-9.7h-84v-16.3h91.7
	c5.9,0,11.6,1.2,17,3.6c5.3,2.4,10.1,5.7,14.1,10c4,4.3,7.3,9.5,9.7,15.6c2.4,6,3.6,12.9,3.6,20.3v2.3
	C175.2,163.4,174,169.7,171.7,175.7"/>
<rect x="39.2" y="146.7" class="st7" width="86" height="17"/>
<rect x="83.9" y="231.3" class="st8" width="89.7" height="16.6"/>
<path class="st9" d="M173.7,273.3v16.2H33.9v-51.6c0-6.5,1.2-12.8,3.5-18.8c2.3-6,5.5-11.3,9.5-15.6c3.2-3.5,7-6.5,11.2-9l0.2-0.1
	c0.9-0.5,1.8-1,2.7-1.5c4.5-2.3,9.3-3.6,14.3-3.9l1-0.1v16.8l-0.7,0.2c-7,1.6-12.5,4.8-16.2,9.4l-0.3,0.3c-0.3,0.3-0.5,0.6-0.7,1
	c-3.9,5.6-5.9,12.8-5.9,21.4v35.4H173.7z"/>
</svg>
